SplineFontDB: 3.2
FontName: Estedad-FD-Medium
FullName: Estedad-FD Medium
FamilyName: Estedad-FD Medium
Weight: Medium
Copyright: Copyright (c) 2020 by Amin Abedi (@aminabedi68)-www.fontamin.com,\nwith Reserved Font Name Estedad.\n\nThis Font Software is licensed under the SIL Open Font License, Version 1.1.
Version: 4.0
ItalicAngle: 0
UnderlinePosition: -680
UnderlineWidth: 125
Ascent: 1638
Descent: 410
InvalidEm: 0
UFOAscent: 1638
UFODescent: -410
LayerCount: 2
Layer: 0 0 "Back" 1
Layer: 1 0 "public.default" 0 "glyphs"
StyleMap: 0x0000
FSType: 0
OS2Version: 0
OS2_WeightWidthSlopeOnly: 0
OS2_UseTypoMetrics: 0
CreationTime: 1585136840
ModificationTime: 1585169791
PfmFamily: 17
TTFWeight: 500
TTFWidth: 5
LineGap: 0
VLineGap: 0
OS2TypoAscent: 2311
OS2TypoAOffset: 0
OS2TypoDescent: -1260
OS2TypoDOffset: 0
OS2TypoLinegap: 0
OS2WinAscent: 2311
OS2WinAOffset: 0
OS2WinDescent: 1260
OS2WinDOffset: 0
HheadAscent: 2311
HheadAOffset: 0
HheadDescent: -1260
HheadDOffset: 0
OS2CapHeight: 1470
OS2XHeight: 1063
OS2Vendor: 'amin'
Lookup: 2 0 0 "Multiple substitution 0" { "Multiple substitution 0 subtable"  } []
Lookup: 2 0 0 "Multiple substitution 1" { "Multiple substitution 1 subtable"  } []
Lookup: 1 9 0 "'fina' Terminal Forms in Arabic lookup 2" { "'fina' Terminal Forms in Arabic lookup 2 subtable"  } ['fina' ('arab' <'FAR ' 'KUR ' 'dflt' > ) ]
Lookup: 1 9 0 "'medi' Medial Forms in Arabic lookup 3" { "'medi' Medial Forms in Arabic lookup 3 subtable"  } ['medi' ('arab' <'FAR ' 'KUR ' 'dflt' > ) ]
Lookup: 1 9 0 "'init' Initial Forms in Arabic lookup 4" { "'init' Initial Forms in Arabic lookup 4 subtable"  } ['init' ('arab' <'FAR ' 'KUR ' 'dflt' > ) ]
Lookup: 4 9 1 "'rlig' Required Ligatures in Arabic lookup 5" { "'rlig' Required Ligatures in Arabic lookup 5 subtable"  } ['rlig' ('arab' <'FAR ' 'KUR ' 'dflt' > ) ]

StartChar: A
Encoding: 65 65 0
GlifName: A_
Width: 1307
VWidth: 0
GlyphClass: 2
Flags: HW
LayerCount: 2
Fore
SplineSet
362 324 m 257
 240 0 l 257
 16 0 l 257
 533 1335 l 257
 776 1335 l 257
 1292 0 l 257
 1068 0 l 257
 946 324 l 257
 362 324 l 257
423 492 m 257
 885 492 l 257
 654 1096 l 257
 423 492 l 257
EndSplineSet
EndChar

StartChar: AE
Encoding: 198 198 1
GlifName: A_E_
Width: 1705
VWidth: 0
GlyphClass: 2
Flags: HW
LayerCount: 2
Fore
SplineSet
812 1155 m 257
 724 1155 l 257
 460 523 l 257
 812 523 l 257
 812 1155 l 257
596 1335 m 257
 1627 1335 l 257
 1627 1155 l 257
 1022 1155 l 257
 1022 752 l 257
 1574 752 l 257
 1574 583 l 257
 1022 583 l 257
 1022 178 l 257
 1627 178 l 257
 1627 0 l 257
 812 0 l 257
 812 356 l 257
 394 356 l 257
 245 0 l 257
 22 0 l 257
 596 1335 l 257
EndSplineSet
EndChar

StartChar: B
Encoding: 66 66 8
GlifName: B_
Width: 1273
VWidth: 0
GlyphClass: 2
Flags: HW
LayerCount: 2
Fore
SplineSet
148 1335 m 257
 664 1335 l 258
 906 1335 1106 1192 1106 954 c 256
 1106 834 1052 744 966 689 c 257
 1094 631 1168 515 1168 369 c 256
 1168 133 968 0 726 0 c 258
 148 0 l 257
 148 1335 l 257
358 583 m 257
 358 178 l 257
 726 178 l 258
 856 178 958 235 958 369 c 256
 958 507 850 583 726 583 c 258
 358 583 l 257
664 752 m 258
 792 752 896 820 896 954 c 256
 896 1089 791 1155 664 1155 c 258
 358 1155 l 257
 358 752 l 257
 664 752 l 258
EndSplineSet
EndChar

StartChar: C
Encoding: 67 67 9
GlifName: C_
Width: 1346
VWidth: 0
GlyphClass: 2
Flags: HW
LayerCount: 2
Fore
SplineSet
1070 364 m 257
 1235 279 l 257
 1147 107 978 -21 722 -21 c 256
 316 -21 102 284 102 668 c 256
 102 1052 316 1356 722 1356 c 256
 978 1356 1147 1228 1235 1056 c 257
 1070 970 l 257
 1003 1096 895 1176 722 1176 c 256
 456 1176 312 982 312 668 c 256
 312 354 456 158 722 158 c 256
 895 158 1003 238 1070 364 c 257
EndSplineSet
EndChar

StartChar: D
Encoding: 68 68 11
GlifName: D_
Width: 1339
VWidth: 0
GlyphClass: 2
Flags: HW
LayerCount: 2
Fore
SplineSet
1226 668 m 256
 1226 294 1037 0 610 0 c 258
 168 0 l 257
 168 1335 l 257
 610 1335 l 258
 1037 1335 1226 1042 1226 668 c 256
1016 668 m 256
 1016 984 897 1155 610 1155 c 258
 378 1155 l 257
 378 178 l 257
 610 178 l 258
 897 178 1016 351 1016 668 c 256
EndSplineSet
EndChar

StartChar: E
Encoding: 69 69 12
GlifName: E_
Width: 1071
VWidth: 0
GlyphClass: 2
Flags: HW
LayerCount: 2
Fore
SplineSet
1014 178 m 257
 1014 0 l 257
 168 0 l 257
 168 1335 l 257
 1014 1335 l 257
 1014 1155 l 257
 378 1155 l 257
 378 752 l 257
 962 752 l 257
 962 583 l 257
 378 583 l 257
 378 178 l 257
 1014 178 l 257
EndSplineSet
EndChar

StartChar: F
Encoding: 70 70 18
GlifName: F_
Width: 1066
VWidth: 0
GlyphClass: 2
Flags: HW
LayerCount: 2
Fore
SplineSet
378 0 m 257
 168 0 l 257
 168 1335 l 257
 1014 1335 l 257
 1014 1155 l 257
 378 1155 l 257
 378 708 l 257
 928 708 l 257
 928 540 l 257
 378 540 l 257
 378 0 l 257
EndSplineSet
EndChar

StartChar: G
Encoding: 71 71 19
GlifName: G_
Width: 1410
VWidth: 0
GlyphClass: 2
Flags: HW
LayerCount: 2
Fore
SplineSet
692 712 m 257
 1300 714 l 257
 1300 510 l 258
 1300 195 1120 -21 738 -21 c 256
 318 -21 105 284 105 668 c 256
 105 1052 318 1356 724 1356 c 256
 980 1356 1150 1228 1238 1056 c 257
 1073 970 l 257
 1006 1096 898 1176 725 1176 c 256
 459 1176 315 982 315 668 c 256
 315 354 457 158 742 158 c 256
 976 158 1090 272 1090 482 c 258
 1090 541 l 257
 694 541 l 257
 692 712 l 257
EndSplineSet
EndChar

StartChar: GAFbar
Encoding: 1114112 -1 20
GlifName: G_A_F_bar
Width: 1049
VWidth: 0
GlyphClass: 2
Flags: HW
LayerCount: 2
Fore
SplineSet
848 2050 m 257
 872 1934 l 257
 604 1878 330 1770 100 1624 c 257
 36 1724 l 257
 280 1880 566 1992 848 2050 c 257
EndSplineSet
EndChar

StartChar: H
Encoding: 72 72 21
GlifName: H_
Width: 1409
VWidth: 0
GlyphClass: 2
Flags: HW
LayerCount: 2
Fore
SplineSet
1032 1335 m 257
 1242 1335 l 257
 1242 0 l 257
 1032 0 l 257
 1032 594 l 257
 378 594 l 257
 378 0 l 257
 168 0 l 257
 168 1335 l 257
 378 1335 l 257
 378 764 l 257
 1032 764 l 257
 1032 1335 l 257
EndSplineSet
EndChar

StartChar: I
Encoding: 73 73 24
GlifName: I_
Width: 619
VWidth: 0
GlyphClass: 2
Flags: HW
LayerCount: 2
Fore
SplineSet
415 0 m 257
 205 0 l 257
 205 1335 l 257
 415 1335 l 257
 415 0 l 257
EndSplineSet
EndChar

StartChar: J
Encoding: 74 74 29
GlifName: J_
Width: 932
VWidth: 0
GlyphClass: 2
Flags: HW
LayerCount: 2
Fore
SplineSet
63 48 m 257
 138 202 l 257
 194 174 253 158 315 158 c 256
 465 158 554 238 554 416 c 258
 554 1335 l 257
 764 1335 l 257
 764 416 l 258
 764 123 569 -21 330 -21 c 256
 236 -21 143 1 63 48 c 257
EndSplineSet
EndChar

StartChar: K
Encoding: 75 75 30
GlifName: K_
Width: 1249
VWidth: 0
GlyphClass: 2
Flags: HW
LayerCount: 2
Fore
SplineSet
968 1335 m 257
 1218 1335 l 257
 652 667 l 257
 1218 0 l 257
 968 0 l 257
 534 524 l 257
 378 334 l 257
 378 0 l 257
 168 0 l 257
 168 1335 l 257
 378 1335 l 257
 378 636 l 257
 968 1335 l 257
EndSplineSet
EndChar

StartChar: L
Encoding: 76 76 31
GlifName: L_
Width: 1040
VWidth: 0
GlyphClass: 2
Flags: HW
LayerCount: 2
Fore
SplineSet
994 178 m 257
 994 0 l 257
 168 0 l 257
 168 1335 l 257
 378 1335 l 257
 378 178 l 257
 994 178 l 257
EndSplineSet
EndChar

StartChar: M
Encoding: 77 77 32
GlifName: M_
Width: 1818
VWidth: 0
GlyphClass: 2
Flags: HW
LayerCount: 2
Fore
SplineSet
378 0 m 257
 168 0 l 257
 168 1335 l 257
 430 1335 l 257
 897 196 l 257
 1389 1335 l 257
 1650 1335 l 257
 1650 0 l 257
 1440 0 l 257
 1440 1018 l 257
 1006 0 l 257
 786 0 l 257
 378 1015 l 257
 378 0 l 257
EndSplineSet
EndChar

StartChar: N
Encoding: 78 78 33
GlifName: N_
Width: 1441
VWidth: 0
GlyphClass: 2
Flags: HW
LayerCount: 2
Fore
SplineSet
1064 1335 m 257
 1274 1335 l 257
 1274 0 l 257
 1060 0 l 257
 378 1004 l 257
 378 0 l 257
 168 0 l 257
 168 1335 l 257
 382 1335 l 257
 1064 330 l 257
 1064 1335 l 257
EndSplineSet
EndChar

StartChar: O
Encoding: 79 79 35
GlifName: O_
Width: 1500
VWidth: 0
GlyphClass: 2
Flags: HW
LayerCount: 2
Fore
SplineSet
750 1356 m 256
 1164 1356 1378 1052 1378 668 c 256
 1378 284 1164 -21 750 -21 c 256
 336 -21 124 284 124 668 c 256
 124 1052 336 1356 750 1356 c 256
750 1176 m 256
 476 1176 334 982 334 668 c 256
 334 354 476 158 750 158 c 256
 1024 158 1168 354 1168 668 c 256
 1168 982 1024 1176 750 1176 c 256
EndSplineSet
EndChar

StartChar: OE
Encoding: 338 338 36
GlifName: O_E_
Width: 1759
VWidth: 0
GlyphClass: 2
Flags: HW
LayerCount: 2
Fore
SplineSet
856 1155 m 257
 764 1155 l 258
 454 1155 316 982 316 668 c 256
 316 354 454 178 764 178 c 258
 856 178 l 257
 856 1155 l 257
1066 1155 m 257
 1066 752 l 257
 1618 752 l 257
 1618 583 l 257
 1066 583 l 257
 1066 178 l 257
 1670 178 l 257
 1670 0 l 257
 764 0 l 258
 314 0 106 284 106 668 c 256
 106 1052 314 1335 764 1335 c 258
 1670 1335 l 257
 1670 1155 l 257
 1066 1155 l 257
EndSplineSet
EndChar

StartChar: P
Encoding: 80 80 43
GlifName: P_
Width: 1228
VWidth: 0
GlyphClass: 2
Flags: HW
LayerCount: 2
Fore
SplineSet
358 0 m 257
 148 0 l 257
 148 1335 l 257
 680 1335 l 258
 922 1335 1132 1192 1132 944 c 256
 1132 694 920 552 680 552 c 258
 358 552 l 257
 358 0 l 257
358 1155 m 257
 358 731 l 257
 680 731 l 258
 808 731 922 788 922 944 c 256
 922 1100 807 1155 680 1155 c 258
 358 1155 l 257
EndSplineSet
EndChar

StartChar: R
Encoding: 82 82 45
GlifName: R_
Width: 1228
VWidth: 0
GlyphClass: 2
Flags: HW
LayerCount: 2
Fore
SplineSet
854 671 m 257
 1208 0 l 257
 986 0 l 257
 658 671 l 257
 854 671 l 257
358 0 m 257
 148 0 l 257
 148 1335 l 257
 680 1335 l 258
 922 1335 1132 1192 1132 944 c 256
 1132 694 920 552 680 552 c 258
 358 552 l 257
 358 0 l 257
358 1155 m 257
 358 731 l 257
 680 731 l 258
 808 731 922 788 922 944 c 256
 922 1100 807 1155 680 1155 c 258
 358 1155 l 257
EndSplineSet
EndChar

StartChar: S
Encoding: 83 83 46
GlifName: S_
Width: 1168
VWidth: 0
GlyphClass: 2
Flags: HW
LayerCount: 2
Fore
SplineSet
94 418 m 257
 302 418 l 257
 302 246 422 158 597 158 c 256
 745 158 867 225 867 370 c 256
 867 496 713 541 564 583 c 256
 370 637 121 725 121 975 c 256
 121 1219 338 1356 572 1356 c 256
 844 1356 1048 1186 1048 917 c 257
 840 917 l 257
 840 1081 740 1176 572 1176 c 256
 430 1176 328 1109 328 971 c 256
 328 849 479 803 626 762 c 256
 822 708 1074 619 1074 361 c 256
 1074 99 825 -21 597 -21 c 256
 315 -21 94 136 94 418 c 257
EndSplineSet
EndChar

StartChar: T
Encoding: 84 84 47
GlifName: T_
Width: 1281
VWidth: 0
GlyphClass: 2
Flags: HW
LayerCount: 2
Fore
SplineSet
746 0 m 257
 536 0 l 257
 536 1155 l 257
 74 1155 l 257
 74 1335 l 257
 1208 1335 l 257
 1208 1155 l 257
 746 1155 l 257
 746 0 l 257
EndSplineSet
EndChar

StartChar: Thorn
Encoding: 222 222 54
GlifName: T_horn
Width: 1143
VWidth: 0
GlyphClass: 2
Flags: HW
LayerCount: 2
Fore
SplineSet
384 439 m 257
 559 439 l 258
 729 439 834 490 834 660 c 256
 834 830 729 882 559 882 c 258
 384 882 l 257
 384 439 l 257
384 0 m 257
 174 0 l 257
 174 1335 l 257
 384 1335 l 257
 384 1050 l 257
 559 1050 l 258
 811 1050 1044 948 1044 660 c 256
 1044 372 811 271 559 271 c 258
 384 271 l 257
 384 0 l 257
EndSplineSet
EndChar

StartChar: U
Encoding: 85 85 55
GlifName: U_
Width: 1374
VWidth: 0
GlyphClass: 2
Flags: HW
LayerCount: 2
Fore
SplineSet
1020 1335 m 257
 1230 1335 l 257
 1230 496 l 258
 1230 188 1005 -21 688 -21 c 256
 371 -21 144 188 144 496 c 258
 144 1335 l 257
 354 1335 l 257
 354 486 l 258
 354 282 480 158 688 158 c 256
 896 158 1020 282 1020 486 c 258
 1020 1335 l 257
EndSplineSet
EndChar

StartChar: V
Encoding: 86 86 60
GlifName: V_
Width: 1307
VWidth: 0
GlyphClass: 2
Flags: HW
LayerCount: 2
Fore
SplineSet
1068 1335 m 257
 1292 1335 l 257
 774 0 l 257
 532 0 l 257
 16 1335 l 257
 240 1335 l 257
 653 240 l 257
 1068 1335 l 257
EndSplineSet
EndChar

StartChar: W
Encoding: 87 87 61
GlifName: W_
Width: 1948
VWidth: 0
GlyphClass: 2
Flags: HW
LayerCount: 2
Fore
SplineSet
1684 1335 m 257
 1902 1335 l 257
 1494 0 l 257
 1264 0 l 257
 974 1048 l 257
 683 0 l 257
 454 0 l 257
 48 1335 l 257
 265 1335 l 257
 568 285 l 257
 860 1335 l 257
 1088 1335 l 257
 1380 285 l 257
 1684 1335 l 257
EndSplineSet
EndChar

StartChar: X
Encoding: 88 88 62
GlifName: X_
Width: 1318
VWidth: 0
GlyphClass: 2
Flags: HW
LayerCount: 2
Fore
SplineSet
1288 0 m 257
 1040 0 l 257
 660 512 l 257
 280 0 l 257
 32 0 l 257
 546 667 l 257
 32 1335 l 257
 280 1335 l 257
 660 822 l 257
 1040 1335 l 257
 1288 1335 l 257
 773 667 l 257
 1288 0 l 257
EndSplineSet
EndChar

StartChar: Y
Encoding: 89 89 63
GlifName: Y_
Width: 1254
VWidth: 0
GlyphClass: 2
Flags: HW
LayerCount: 2
Fore
SplineSet
996 1335 m 257
 1238 1335 l 257
 732 565 l 257
 732 0 l 257
 522 0 l 257
 522 565 l 257
 16 1335 l 257
 258 1335 l 257
 628 745 l 257
 996 1335 l 257
EndSplineSet
EndChar

StartChar: Z
Encoding: 90 90 65
GlifName: Z_
Width: 1224
VWidth: 0
GlyphClass: 2
Flags: HW
LayerCount: 2
Fore
SplineSet
79 1155 m 257
 79 1334 l 257
 1146 1334 l 257
 1146 1163 l 257
 312 178 l 257
 1146 178 l 257
 1146 0 l 257
 79 0 l 257
 79 171 l 257
 913 1155 l 257
 79 1155 l 257
EndSplineSet
EndChar

StartChar: a
Encoding: 97 97 66
GlifName: a
Width: 1002
VWidth: 0
GlyphClass: 2
Flags: HW
LayerCount: 2
Fore
SplineSet
872 600 m 258
 872 0 l 257
 662 0 l 257
 662 595 l 258
 662 726 609 822 471 822 c 256
 359 822 295 748 244 664 c 257
 93 742 l 257
 167 880 280 985 484 985 c 256
 696 985 872 856 872 600 c 258
EndSplineSet
Refer: 312 57355 N 1 0 0 1 -37 0 2
EndChar

StartChar: acute
Encoding: 180 180 69
GlifName: acute
Width: 543
VWidth: 0
GlyphClass: 2
Flags: HW
LayerCount: 2
Fore
SplineSet
339 1376 m 257
 418 1326 l 257
 204 984 l 257
 126 1034 l 257
 339 1376 l 257
EndSplineSet
EndChar

StartChar: ae
Encoding: 230 230 71
GlifName: ae
Width: 1622
VWidth: 0
GlyphClass: 2
Flags: HW
LayerCount: 2
Fore
SplineSet
872 445 m 257
 880 275 967 138 1127 138 c 256
 1240 138 1312 210 1350 296 c 257
 1520 234 l 257
 1466 96 1326 -21 1126 -21 c 256
 824 -21 662 222 662 482 c 256
 662 742 829 985 1125 985 c 256
 1403 985 1552 746 1552 476 c 258
 1552 445 l 257
 872 445 l 257
878 576 m 257
 1354 576 l 257
 1336 714 1266 826 1127 826 c 256
 989 826 902 726 878 576 c 257
872 594 m 258
 872 263 l 257
 662 263 l 257
 662 590 l 258
 662 721 609 822 471 822 c 256
 359 822 295 748 244 664 c 257
 93 742 l 257
 167 880 280 985 484 985 c 256
 696 985 872 850 872 594 c 258
EndSplineSet
Refer: 312 57355 N 1 0 0 1 -37 0 2
EndChar

StartChar: ampersand
Encoding: 38 38 73
GlifName: ampersand
Width: 1132
VWidth: 0
GlyphClass: 2
Flags: HW
LayerCount: 2
Fore
SplineSet
350 690 m 257
 274 780 l 258
 212 854 181 940 181 1024 c 256
 181 1198 316 1356 540 1356 c 256
 757 1356 906 1211 906 1041 c 256
 906 863 761 733 640 652 c 257
 868 384 l 257
 977 524 l 257
 1137 408 l 257
 1000 231 l 257
 1126 83 l 257
 976 -42 l 257
 860 93 l 257
 766 21 650 -21 508 -21 c 256
 292 -21 105 109 105 325 c 256
 105 497 234 612 350 690 c 257
474 546 m 257
 390 487 312 422 312 325 c 256
 312 207 392 156 508 156 c 256
 616 156 677 187 736 237 c 257
 474 546 l 257
517 796 m 257
 595 849 699 931 699 1041 c 256
 699 1126 630 1178 540 1178 c 256
 444 1178 388 1120 388 1024 c 256
 388 977 407 926 442 884 c 258
 517 796 l 257
EndSplineSet
EndChar

StartChar: asciicircum
Encoding: 94 94 75
GlifName: asciicircum
Width: 739
VWidth: 0
GlyphClass: 2
Flags: HW
LayerCount: 2
Fore
SplineSet
654 1014 m 257
 579 956 l 257
 370 1220 l 257
 160 956 l 257
 86 1014 l 257
 326 1318 l 257
 414 1318 l 257
 654 1014 l 257
EndSplineSet
EndChar

StartChar: asciitilde
Encoding: 126 126 76
GlifName: asciitilde
Width: 911
VWidth: 0
GlyphClass: 2
Flags: HW
LayerCount: 2
Fore
SplineSet
78 1016 m 257
 130 1140 220 1200 302 1200 c 256
 370 1200 422 1177 484 1130 c 256
 538 1090 564 1079 610 1079 c 256
 642 1079 704 1112 746 1208 c 257
 833 1170 l 257
 783 1053 696 984 610 984 c 256
 542 984 488 1009 428 1055 c 256
 372 1097 348 1106 302 1106 c 256
 266 1106 209 1079 166 980 c 257
 78 1016 l 257
EndSplineSet
EndChar

StartChar: asterisk
Encoding: 42 42 77
GlifName: asterisk
Width: 1189
VWidth: 0
GlyphClass: 2
Flags: HW
LayerCount: 2
Fore
SplineSet
172 974 m 257
 218 1116 l 257
 526 1010 l 257
 520 1335 l 257
 670 1335 l 257
 664 1010 l 257
 972 1116 l 257
 1018 974 l 257
 708 878 l 257
 904 617 l 257
 782 529 l 257
 594 796 l 257
 408 529 l 257
 286 617 l 257
 482 878 l 257
 172 974 l 257
EndSplineSet
EndChar

StartChar: at
Encoding: 64 64 78
GlifName: at
Width: 2222
VWidth: 0
GlyphClass: 2
Flags: HW
LayerCount: 2
Fore
SplineSet
1095 914 m 256
 939 914 762 790 762 466 c 256
 762 240 874 148 1014 148 c 256
 1118 148 1260 228 1282 492 c 258
 1314 854 l 257
 1263 889 1209 914 1095 914 c 256
1095 1083 m 256
 1313 1083 1415 1005 1518 922 c 257
 1466 336 l 258
 1464 320 1464 308 1464 298 c 256
 1464 190 1520 134 1620 134 c 256
 1766 134 1870 295 1870 541 c 256
 1870 971 1525 1339 1096 1339 c 256
 678 1339 306 999 306 541 c 256
 306 61 645 -258 1112 -258 c 256
 1198 -258 1281 -244 1358 -220 c 257
 1405 -340 l 257
 1314 -369 1216 -386 1112 -386 c 256
 546 -386 158 6 158 541 c 256
 158 1055 575 1467 1090 1467 c 256
 1626 1467 2018 1027 2018 541 c 256
 2018 288 1890 -20 1588 -20 c 256
 1463 -20 1373 38 1325 120 c 257
 1242 27 1131 -20 1014 -20 c 256
 788 -20 565 131 565 466 c 256
 565 851 801 1083 1095 1083 c 256
EndSplineSet
EndChar

StartChar: b
Encoding: 98 98 80
GlifName: b
Width: 1169
VWidth: 0
GlyphClass: 2
Flags: HW
LayerCount: 2
Fore
SplineSet
352 0 m 257
 142 0 l 257
 142 1440 l 257
 352 1440 l 257
 352 0 l 257
EndSplineSet
Refer: 316 57359 N 1 0 0 1 16 0 2
EndChar

StartChar: backslash
Encoding: 92 92 81
GlifName: backslash
Width: 1075
VWidth: 0
GlyphClass: 2
Flags: HW
LayerCount: 2
Fore
SplineSet
1000 50 m 257
 813 -66 l 257
 76 1272 l 257
 263 1388 l 257
 1000 50 l 257
EndSplineSet
EndChar

StartChar: bar
Encoding: 124 124 82
GlifName: bar
Width: 462
VWidth: 0
GlyphClass: 2
Flags: HW
LayerCount: 2
Fore
SplineSet
137 1335 m 257
 326 1335 l 257
 326 -431 l 257
 137 -431 l 257
 137 1335 l 257
EndSplineSet
EndChar

StartChar: braceleft
Encoding: 123 123 83
GlifName: braceleft
Width: 793
VWidth: 0
GlyphClass: 2
Flags: HW
LayerCount: 2
Fore
SplineSet
358 668 m 257
 441 628 509 519 509 416 c 258
 509 196 l 258
 509 140 531 123 585 123 c 258
 715 123 l 257
 715 -56 l 257
 548 -56 l 258
 408 -56 299 40 299 170 c 258
 299 416 l 258
 299 500 246 552 178 572 c 258
 105 594 l 257
 105 742 l 257
 178 762 l 258
 246 782 299 836 299 920 c 258
 299 1164 l 258
 299 1294 408 1389 548 1389 c 258
 715 1389 l 257
 715 1212 l 257
 585 1212 l 258
 531 1212 509 1194 509 1138 c 258
 509 920 l 258
 509 816 441 708 358 668 c 257
EndSplineSet
EndChar

StartChar: braceright
Encoding: 125 125 84
GlifName: braceright
Width: 793
VWidth: 0
GlyphClass: 2
Flags: HW
LayerCount: 2
Fore
SplineSet
462 668 m 257
 380 708 311 816 311 920 c 258
 311 1138 l 258
 311 1194 290 1212 236 1212 c 258
 105 1212 l 257
 105 1390 l 257
 272 1390 l 258
 412 1390 521 1294 521 1164 c 258
 521 920 l 258
 521 836 574 782 642 762 c 258
 715 742 l 257
 715 594 l 257
 642 572 l 258
 574 552 521 500 521 416 c 258
 521 170 l 258
 521 40 412 -56 272 -56 c 258
 105 -56 l 257
 105 123 l 257
 236 123 l 258
 290 123 311 140 311 196 c 258
 311 416 l 258
 311 519 378 628 462 668 c 257
EndSplineSet
EndChar

StartChar: bracketleft
Encoding: 91 91 85
GlifName: bracketleft
Width: 674
VWidth: 0
GlyphClass: 2
Flags: HW
LayerCount: 2
Fore
SplineSet
596 123 m 257
 596 -56 l 257
 126 -56 l 257
 126 1390 l 257
 596 1390 l 257
 596 1211 l 257
 336 1211 l 257
 336 123 l 257
 596 123 l 257
EndSplineSet
EndChar

StartChar: bracketright
Encoding: 93 93 86
GlifName: bracketright
Width: 674
VWidth: 0
GlyphClass: 2
Flags: HW
LayerCount: 2
Fore
SplineSet
79 1211 m 257
 79 1390 l 257
 548 1390 l 257
 548 -56 l 257
 79 -56 l 257
 79 123 l 257
 338 123 l 257
 338 1211 l 257
 79 1211 l 257
EndSplineSet
EndChar

StartChar: brokenbar
Encoding: 166 166 87
GlifName: brokenbar
Width: 462
VWidth: 0
GlyphClass: 2
Flags: HW
LayerCount: 2
Fore
SplineSet
336 816 m 257
 126 816 l 257
 126 1335 l 257
 336 1335 l 257
 336 816 l 257
336 0 m 257
 126 0 l 257
 126 495 l 257
 336 495 l 257
 336 0 l 257
EndSplineSet
EndChar

StartChar: c
Encoding: 99 99 88
GlifName: c
Width: 1026
VWidth: 0
GlyphClass: 2
Flags: HW
LayerCount: 2
Fore
SplineSet
549 138 m 256
 662 138 735 210 773 296 c 257
 943 234 l 257
 889 96 748 -21 548 -21 c 256
 246 -21 84 222 84 482 c 256
 84 742 246 985 548 985 c 256
 748 985 889 867 943 729 c 257
 773 667 l 257
 735 753 662 826 549 826 c 256
 387 826 294 686 294 482 c 256
 294 278 387 138 549 138 c 256
EndSplineSet
EndChar

StartChar: cedilla
Encoding: 184 184 90
GlifName: cedilla
Width: 759
VWidth: 0
GlyphClass: 2
Flags: HW
LayerCount: 2
Fore
SplineSet
210 -358 m 257
 387 -358 l 258
 481 -358 491 -320 491 -298 c 256
 491 -279 481 -247 453 -214 c 258
 348 -91 l 257
 430 -4 l 257
 535 -127 l 258
 578 -178 604 -237 604 -298 c 256
 604 -414 510 -484 387 -484 c 258
 210 -484 l 257
 210 -358 l 257
EndSplineSet
EndChar

StartChar: cent
Encoding: 162 162 91
GlifName: cent
Width: 1026
VWidth: 0
GlyphClass: 2
Flags: HW
LayerCount: 2
Fore
SplineSet
646 853 m 257
 457 853 l 257
 457 1335 l 257
 646 1335 l 257
 646 853 l 257
646 -431 m 257
 457 -431 l 257
 457 23 l 257
 646 23 l 257
 646 -431 l 257
EndSplineSet
Refer: 88 99 N 1 0 0 1 0 0 2
EndChar

StartChar: comma
Encoding: 44 44 93
GlifName: comma
Width: 583
VWidth: 0
GlyphClass: 2
Flags: HW
LayerCount: 2
Fore
SplineSet
146 167 m 256
 146 247 204 312 284 312 c 256
 374 312 438 253 438 120 c 256
 438 -56 346 -184 233 -274 c 257
 163 -196 l 257
 231 -136 300 -58 318 28 c 257
 240 12 146 71 146 167 c 256
EndSplineSet
EndChar

StartChar: copyright
Encoding: 169 169 94
GlifName: copyright
Width: 1748
VWidth: 0
GlyphClass: 2
Flags: HW
LayerCount: 2
Fore
SplineSet
1154 958 m 257
 1072 886 l 257
 1020 950 946 980 876 980 c 256
 740 980 636 868 636 722 c 256
 636 576 740 464 876 464 c 256
 946 464 1020 494 1072 558 c 257
 1154 486 l 257
 1078 396 992 349 870 349 c 256
 648 349 503 530 503 722 c 256
 503 914 648 1096 870 1096 c 256
 992 1096 1078 1048 1154 958 c 257
302 721 m 256
 302 393 566 140 874 140 c 256
 1182 140 1447 393 1447 721 c 256
 1447 1049 1182 1300 874 1300 c 256
 566 1300 302 1049 302 721 c 256
116 721 m 256
 116 1127 448 1468 874 1468 c 256
 1300 1468 1633 1127 1633 721 c 256
 1633 315 1301 -28 874 -28 c 256
 447 -28 116 315 116 721 c 256
EndSplineSet
EndChar

StartChar: currency
Encoding: 164 164 95
GlifName: currency
Width: 1294
VWidth: 0
GlyphClass: 2
Flags: HW
LayerCount: 2
Fore
SplineSet
692 822 m 257
 552 758 l 257
 548 1028 l 257
 688 1090 l 257
 692 822 l 257
361 540 m 257
 428 414 l 257
 182 421 l 257
 116 547 l 257
 361 540 l 257
706 445 m 257
 640 508 l 257
 644 501 l 257
 710 438 l 257
 706 445 l 257
830 100 m 257
 970 226 l 257
 1216 -42 l 257
 1076 -168 l 257
 830 100 l 257
EndSplineSet
Refer: 142 111 N 1 0 0 1 106 0 2
EndChar

StartChar: d
Encoding: 100 100 96
GlifName: d
Width: 1169
VWidth: 0
GlyphClass: 2
Flags: HW
LayerCount: 2
Fore
SplineSet
1028 0 m 257
 818 0 l 257
 818 1440 l 257
 1028 1440 l 257
 1028 0 l 257
EndSplineSet
Refer: 316 57359 N -1 0 0 -1 1154 964 2
EndChar

StartChar: degree
Encoding: 176 176 97
GlifName: degree
Width: 678
VWidth: 0
GlyphClass: 2
Flags: HW
LayerCount: 2
Fore
SplineSet
494 1288 m 256
 494 1376 427 1442 339 1442 c 256
 251 1442 185 1376 185 1288 c 256
 185 1200 251 1134 339 1134 c 256
 427 1134 494 1200 494 1288 c 256
588 1288 m 256
 588 1150 477 1040 339 1040 c 256
 201 1040 90 1150 90 1288 c 256
 90 1426 201 1537 339 1537 c 256
 477 1537 588 1426 588 1288 c 256
EndSplineSet
EndChar

StartChar: dotlessi
Encoding: 305 305 101
GlifName: dotlessi
Width: 472
VWidth: 0
GlyphClass: 2
Flags: HW
LayerCount: 2
Fore
SplineSet
132 964 m 257
 342 964 l 257
 342 0 l 257
 132 0 l 257
 132 964 l 257
EndSplineSet
EndChar

StartChar: e
Encoding: 101 101 102
GlifName: e
Width: 1031
VWidth: 0
GlyphClass: 2
Flags: HW
LayerCount: 2
Fore
SplineSet
281 445 m 257
 289 275 376 138 536 138 c 256
 649 138 722 210 760 296 c 257
 930 234 l 257
 876 96 735 -21 535 -21 c 256
 233 -21 71 222 71 482 c 256
 71 742 238 985 534 985 c 256
 812 985 961 746 961 476 c 258
 961 445 l 257
 281 445 l 257
288 576 m 257
 764 576 l 257
 746 714 675 826 536 826 c 256
 398 826 312 726 288 576 c 257
EndSplineSet
EndChar

StartChar: eth
Encoding: 240 240 109
GlifName: eth
Width: 1085
VWidth: 0
GlyphClass: 2
Flags: HW
LayerCount: 2
Fore
SplineSet
542 826 m 256
 378 826 286 686 286 482 c 256
 286 278 378 138 542 138 c 256
 706 138 800 278 800 482 c 256
 800 686 706 826 542 826 c 256
542 985 m 256
 632 985 730 952 792 868 c 257
 744 1011 623 1150 546 1214 c 257
 390 1086 l 257
 312 1179 l 257
 450 1291 l 257
 398 1325 339 1355 279 1373 c 257
 324 1511 l 257
 400 1491 488 1444 572 1384 c 257
 714 1504 l 257
 789 1410 l 257
 661 1309 l 257
 905 1075 1010 808 1010 534 c 256
 1010 222 846 -20 542 -20 c 256
 238 -20 76 222 76 482 c 256
 76 742 238 985 542 985 c 256
EndSplineSet
EndChar

StartChar: exclam
Encoding: 33 33 110
GlifName: exclam
Width: 640
VWidth: 0
GlyphClass: 2
Flags: HW
LayerCount: 2
Fore
SplineSet
426 454 m 257
 216 454 l 257
 216 1335 l 257
 426 1335 l 257
 426 454 l 257
EndSplineSet
Refer: 160 46 N 1 0 0 1 32 0 2
EndChar

StartChar: f
Encoding: 102 102 112
GlifName: f
Width: 718
VWidth: 0
GlyphClass: 2
Flags: HW
LayerCount: 2
Fore
SplineSet
703 1440 m 257
 703 1283 l 257
 510 1283 l 258
 464 1283 426 1248 426 1194 c 258
 426 0 l 257
 216 0 l 257
 216 1162 l 258
 216 1308 336 1440 505 1440 c 257
 703 1440 l 257
EndSplineSet
Refer: 311 57354 N 1 0 0 1 -42 313 2
EndChar

StartChar: g
Encoding: 103 103 116
GlifName: g
Width: 1174
VWidth: 0
GlyphClass: 2
Flags: HW
LayerCount: 2
Fore
SplineSet
823 964 m 257
 1033 964 l 257
 1033 93 l 258
 1033 -287 802 -446 512 -446 c 256
 357 -446 209 -410 96 -350 c 257
 161 -192 l 257
 255 -237 378 -270 490 -270 c 256
 669 -270 823 -184 823 60 c 258
 823 964 l 257
EndSplineSet
Refer: 316 57359 N -1 0 0 -1 1158 964 2
EndChar

StartChar: germandbls
Encoding: 223 223 117
GlifName: germandbls
Width: 1175
VWidth: 0
GlyphClass: 2
Flags: HW
LayerCount: 2
Fore
SplineSet
536 -6 m 257
 536 172 l 257
 806 172 880 185 880 271 c 256
 880 332 842 376 771 426 c 256
 701 476 593 554 593 698 c 256
 593 800 636 859 678 911 c 256
 716 958 749 1010 749 1084 c 256
 749 1210 681 1294 548 1294 c 256
 404 1294 350 1206 350 1068 c 258
 350 0 l 257
 152 0 l 257
 152 1068 l 258
 152 1268 275 1462 548 1462 c 256
 814 1462 946 1270 946 1068 c 256
 946 958 900 872 846 822 c 256
 812 788 787 756 787 704 c 256
 787 649 828 612 892 566 c 256
 969 510 1076 417 1076 266 c 256
 1076 12 853 -6 536 -6 c 257
EndSplineSet
EndChar

StartChar: grave
Encoding: 96 96 118
GlifName: grave
Width: 550
VWidth: 0
GlyphClass: 2
Flags: HW
LayerCount: 2
Fore
SplineSet
422 1035 m 257
 342 984 l 257
 128 1325 l 257
 208 1376 l 257
 422 1035 l 257
EndSplineSet
EndChar

StartChar: greater
Encoding: 62 62 119
GlifName: greater
Width: 829
VWidth: 0
GlyphClass: 2
Flags: HW
LayerCount: 2
Fore
SplineSet
228 180 m 257
 126 286 l 257
 524 662 l 257
 126 1040 l 257
 228 1145 l 257
 736 662 l 257
 228 180 l 257
EndSplineSet
EndChar

StartChar: h
Encoding: 104 104 122
GlifName: h
Width: 1168
VWidth: 0
GlyphClass: 2
Flags: HW
LayerCount: 2
Fore
SplineSet
347 0 m 257
 137 0 l 257
 137 1440 l 257
 347 1440 l 257
 347 0 l 257
EndSplineSet
Refer: 314 57357 N 1 0 0 1 32 0 2
EndChar

StartChar: hyphen
Encoding: 45 45 123
GlifName: hyphen
Width: 1021
VWidth: 0
GlyphClass: 2
Flags: HW
LayerCount: 2
Fore
SplineSet
922 656 m 257
 922 498 l 257
 100 498 l 257
 100 656 l 257
 922 656 l 257
EndSplineSet
EndChar

StartChar: k
Encoding: 107 107 130
GlifName: k
Width: 1049
VWidth: 0
GlyphClass: 2
Flags: HW
LayerCount: 2
Fore
SplineSet
754 964 m 257
 1018 964 l 257
 598 494 l 257
 1018 0 l 257
 754 0 l 257
 476 358 l 257
 351 217 l 257
 351 0 l 257
 142 0 l 257
 142 1440 l 257
 351 1440 l 257
 351 484 l 257
 754 964 l 257
EndSplineSet
EndChar

StartChar: l
Encoding: 108 108 131
GlifName: l
Width: 504
VWidth: 0
GlyphClass: 2
Flags: HW
LayerCount: 2
Fore
SplineSet
358 0 m 257
 148 0 l 257
 148 1440 l 257
 358 1440 l 257
 358 0 l 257
EndSplineSet
EndChar

StartChar: less
Encoding: 60 60 132
GlifName: less
Width: 829
VWidth: 0
GlyphClass: 2
Flags: HW
LayerCount: 2
Fore
SplineSet
586 1145 m 257
 689 1040 l 257
 291 663 l 257
 689 286 l 257
 586 180 l 257
 78 663 l 257
 586 1145 l 257
EndSplineSet
EndChar

StartChar: logicalnot
Encoding: 172 172 133
GlifName: logicalnot
Width: 1105
VWidth: 0
GlyphClass: 2
Flags: HW
LayerCount: 2
Fore
SplineSet
90 482 m 257
 90 639 l 257
 938 639 l 257
 938 238 l 257
 770 238 l 257
 770 482 l 257
 90 482 l 257
EndSplineSet
EndChar

StartChar: m
Encoding: 109 109 134
GlifName: m
Width: 1697
VWidth: 0
GlyphClass: 2
Flags: HW
LayerCount: 2
Fore
SplineSet
132 964 m 257
 342 964 l 257
 342 0 l 257
 132 0 l 257
 132 964 l 257
EndSplineSet
Refer: 313 57356 N 1 0 0 1 -570 0 2
Refer: 313 57356 N 1 0 0 1 48 0 2
EndChar

StartChar: mu
Encoding: 181 181 136
GlifName: mu
Width: 1168
VWidth: 0
GlyphClass: 2
Flags: HW
LayerCount: 2
Fore
SplineSet
137 964 m 257
 347 964 l 257
 347 -431 l 257
 137 -431 l 257
 137 964 l 257
EndSplineSet
Refer: 189 117 N 1 0 0 1 0 0 2
EndChar

StartChar: multiply
Encoding: 215 215 137
GlifName: multiply
Width: 988
VWidth: 0
GlyphClass: 2
Flags: HW
LayerCount: 2
Fore
SplineSet
752 951 m 257
 864 840 l 257
 606 583 l 257
 864 326 l 257
 752 214 l 257
 494 472 l 257
 238 214 l 257
 126 325 l 257
 384 583 l 257
 126 840 l 257
 237 952 l 257
 494 694 l 257
 752 951 l 257
EndSplineSet
EndChar

StartChar: n
Encoding: 110 110 138
GlifName: n
Width: 1168
VWidth: 0
GlyphClass: 2
Flags: HW
LayerCount: 2
Fore
SplineSet
347 0 m 257
 137 0 l 257
 137 964 l 257
 347 964 l 257
 347 0 l 257
EndSplineSet
Refer: 314 57357 N 1 0 0 1 32 0 2
EndChar

StartChar: numbersign
Encoding: 35 35 141
GlifName: numbersign
Width: 1711
VWidth: 0
GlyphClass: 2
Flags: HW
LayerCount: 2
Fore
SplineSet
1054 864 m 257
 735 864 l 257
 641 524 l 257
 961 524 l 257
 1054 864 l 257
496 0 m 257
 300 0 l 257
 402 372 l 257
 158 372 l 257
 158 524 l 257
 444 524 l 257
 538 864 l 257
 260 864 l 257
 260 1014 l 257
 580 1014 l 257
 678 1368 l 257
 874 1368 l 257
 777 1014 l 257
 1096 1014 l 257
 1194 1368 l 257
 1390 1368 l 257
 1293 1014 l 257
 1554 1014 l 257
 1554 864 l 257
 1251 864 l 257
 1158 524 l 257
 1452 524 l 257
 1452 372 l 257
 1116 372 l 257
 1014 0 l 257
 816 0 l 257
 919 372 l 257
 600 372 l 257
 496 0 l 257
EndSplineSet
EndChar

StartChar: o
Encoding: 111 111 142
GlifName: o
Width: 1085
VWidth: 0
GlyphClass: 2
Flags: HW
LayerCount: 2
Fore
SplineSet
542 826 m 256
 378 826 286 686 286 482 c 256
 286 278 378 138 542 138 c 256
 706 138 800 278 800 482 c 256
 800 686 706 826 542 826 c 256
542 985 m 256
 846 985 1010 742 1010 482 c 256
 1010 222 846 -20 542 -20 c 256
 238 -20 76 222 76 482 c 256
 76 742 238 985 542 985 c 256
EndSplineSet
EndChar

StartChar: onehalf
Encoding: 189 189 149
GlifName: onehalf
Width: 2258
VWidth: 0
GlyphClass: 2
Flags: HW
LayerCount: 2
Fore
SplineSet
650 -111 m 257
 490 -16 l 257
 1515 1544 l 257
 1676 1448 l 257
 650 -111 l 257
2164 -264 m 257
 2164 -443 l 257
 1338 -443 l 257
 1338 -282 l 257
 1867 228 l 258
 1929 288 1964 338 1964 433 c 256
 1964 568 1870 644 1756 644 c 256
 1634 644 1544 564 1544 398 c 257
 1339 398 l 257
 1339 661 1527 822 1751 822 c 256
 1958 822 2164 681 2164 424 c 256
 2164 268 2096 171 2018 98 c 257
 1648 -264 l 257
 2164 -264 l 257
132 1268 m 257
 132 1436 l 257
 234 1436 l 258
 339 1436 370 1451 390 1514 c 257
 390 1682 l 257
 600 1682 l 257
 600 516 l 257
 390 516 l 257
 390 1302 l 257
 335 1276 269 1268 191 1268 c 258
 132 1268 l 257
EndSplineSet
EndChar

StartChar: onequarter
Encoding: 188 188 150
GlifName: onequarter
Width: 2089
VWidth: 0
GlyphClass: 2
Flags: HW
LayerCount: 2
Fore
SplineSet
1980 0 m 257
 1980 -164 l 257
 1833 -164 l 257
 1833 -417 l 257
 1622 -417 l 257
 1622 -164 l 257
 1082 -164 l 257
 1082 3 l 257
 1624 798 l 257
 1833 798 l 257
 1833 0 l 257
 1980 0 l 257
1622 0 m 257
 1622 526 l 257
 1264 0 l 257
 1622 0 l 257
652 -111 m 257
 491 -16 l 257
 1516 1544 l 257
 1677 1448 l 257
 652 -111 l 257
132 1267 m 257
 132 1436 l 257
 232 1436 l 258
 338 1436 371 1450 391 1512 c 257
 390 1681 l 257
 600 1681 l 257
 600 516 l 257
 390 516 l 257
 390 1302 l 257
 336 1277 269 1267 191 1267 c 258
 132 1267 l 257
EndSplineSet
EndChar

StartChar: ordfeminine
Encoding: 170 170 151
GlifName: ordfeminine
Width: 784
VWidth: 0
GlyphClass: 2
Flags: HW
LayerCount: 2
Fore
SplineSet
672 1314 m 258
 672 894 l 257
 524 894 l 257
 524 998 l 257
 480 927 410 880 310 880 c 256
 196 880 113 942 113 1058 c 256
 113 1218 278 1294 442 1294 c 256
 470 1294 498 1292 524 1288 c 257
 524 1316 l 258
 524 1405 485 1468 391 1468 c 256
 313 1468 269 1419 233 1359 c 257
 126 1413 l 257
 178 1511 258 1584 401 1584 c 256
 549 1584 672 1493 672 1314 c 258
524 1125 m 257
 524 1201 l 257
 500 1205 476 1208 452 1208 c 256
 349 1208 248 1157 248 1075 c 256
 248 1021 286 996 350 996 c 256
 435 996 499 1048 524 1125 c 257
EndSplineSet
EndChar

StartChar: p
Encoding: 112 112 155
GlifName: p
Width: 1169
VWidth: 0
GlyphClass: 2
Flags: HW
LayerCount: 2
Fore
SplineSet
142 959 m 257
 352 959 l 257
 352 -431 l 257
 142 -431 l 257
 142 959 l 257
EndSplineSet
Refer: 316 57359 N 1 0 0 1 16 0 2
EndChar

StartChar: paragraph
Encoding: 182 182 156
GlifName: paragraph
Width: 1366
VWidth: 0
GlyphClass: 2
Flags: HW
LayerCount: 2
Fore
SplineSet
744 1156 m 257
 594 1156 l 258
 455 1156 315 1039 315 825 c 256
 315 611 455 495 594 495 c 258
 744 495 l 257
 744 1156 l 257
1225 -431 m 257
 1057 -431 l 257
 1057 1156 l 257
 912 1156 l 257
 912 -431 l 257
 744 -431 l 257
 744 317 l 257
 594 317 l 258
 313 317 105 545 105 825 c 256
 105 1105 312 1334 594 1334 c 258
 1225 1334 l 257
 1225 -431 l 257
EndSplineSet
EndChar

StartChar: parenleft
Encoding: 40 40 157
GlifName: parenleft
Width: 551
VWidth: 0
GlyphClass: 2
Flags: HW
LayerCount: 2
Fore
SplineSet
473 -54 m 257
 332 -146 l 257
 180 84 79 350 79 712 c 256
 79 1074 180 1340 332 1570 c 257
 473 1478 l 257
 336 1264 266 1021 266 712 c 256
 266 403 336 160 473 -54 c 257
EndSplineSet
EndChar

StartChar: parenright
Encoding: 41 41 158
GlifName: parenright
Width: 551
VWidth: 0
GlyphClass: 2
Flags: HW
LayerCount: 2
Fore
SplineSet
79 1478 m 257
 218 1570 l 257
 370 1340 473 1074 473 712 c 256
 473 350 370 84 218 -146 c 257
 79 -54 l 257
 216 160 286 403 286 712 c 256
 286 1021 216 1264 79 1478 c 257
EndSplineSet
EndChar

StartChar: period
Encoding: 46 46 160
GlifName: period
Width: 577
VWidth: 0
GlyphClass: 2
Flags: HW
LayerCount: 2
Fore
SplineSet
163 124 m 256
 163 193 221 248 290 248 c 256
 359 248 415 193 415 124 c 256
 415 55 359 0 290 0 c 256
 221 0 163 55 163 124 c 256
EndSplineSet
EndChar

StartChar: plus
Encoding: 43 43 162
GlifName: plus
Width: 1021
VWidth: 0
GlyphClass: 2
Flags: HW
LayerCount: 2
Fore
SplineSet
922 632 m 257
 922 475 l 257
 600 475 l 257
 600 143 l 257
 421 143 l 257
 421 475 l 257
 100 475 l 257
 100 632 l 257
 421 632 l 257
 421 964 l 257
 600 964 l 257
 600 632 l 257
 922 632 l 257
EndSplineSet
EndChar

StartChar: q
Encoding: 113 113 164
GlifName: q
Width: 1169
VWidth: 0
GlyphClass: 2
Flags: HW
LayerCount: 2
Fore
SplineSet
818 964 m 257
 1028 964 l 257
 1028 -431 l 257
 818 -431 l 257
 818 964 l 257
EndSplineSet
Refer: 316 57359 N -1 0 0 -1 1154 964 2
EndChar

StartChar: question
Encoding: 63 63 165
GlifName: question
Width: 1081
VWidth: 0
GlyphClass: 2
Flags: HW
LayerCount: 2
Fore
SplineSet
528 0 m 256
 459 0 402 55 402 124 c 256
 402 193 459 248 528 248 c 256
 597 248 654 193 654 124 c 256
 654 55 597 0 528 0 c 256
336 878 m 257
 146 855 l 257
 140 893 134 939 134 974 c 256
 134 1163 264 1356 536 1356 c 256
 804 1356 947 1159 947 956 c 256
 947 816 864 727 776 657 c 256
 691 589 620 527 620 404 c 257
 422 404 l 257
 422 554 514 639 604 717 c 256
 687 789 750 863 750 981 c 256
 750 1095 668 1187 536 1187 c 256
 388 1187 326 1091 326 974 c 256
 326 941 330 909 336 878 c 257
EndSplineSet
EndChar

StartChar: quoteleft
Encoding: 8216 8216 170
GlifName: quoteleft
Width: 575
VWidth: 0
GlyphClass: 2
Flags: HW
LayerCount: 2
Fore
SplineSet
436 1362 m 256
 436 1263 350 1207 254 1223 c 257
 268 1135 330 1052 394 988 c 257
 318 916 l 257
 219 1008 140 1133 140 1302 c 256
 140 1434 201 1506 295 1506 c 256
 381 1506 436 1442 436 1362 c 256
EndSplineSet
EndChar

StartChar: quoteright
Encoding: 8217 8217 171
GlifName: quoteright
Width: 575
VWidth: 0
GlyphClass: 2
Flags: HW
LayerCount: 2
Fore
SplineSet
140 1362 m 256
 140 1442 194 1506 280 1506 c 256
 374 1506 436 1434 436 1302 c 256
 436 1133 357 1008 258 916 c 257
 181 988 l 257
 245 1052 308 1135 322 1223 c 257
 226 1207 140 1263 140 1362 c 256
EndSplineSet
EndChar

StartChar: quotesingle
Encoding: 39 39 172
GlifName: quotesingle
Width: 420
VWidth: 0
GlyphClass: 2
Flags: HW
LayerCount: 2
Fore
SplineSet
142 1335 m 257
 278 1335 l 257
 278 799 l 257
 142 799 l 257
 142 1335 l 257
EndSplineSet
EndChar

StartChar: r
Encoding: 114 114 173
GlifName: r
Width: 770
VWidth: 0
GlyphClass: 2
Flags: HW
LayerCount: 2
Fore
SplineSet
142 964 m 257
 352 964 l 257
 352 0 l 257
 142 0 l 257
 142 964 l 257
EndSplineSet
Refer: 315 57358 N 1 0 0 1 37 -184 2
EndChar

StartChar: registered
Encoding: 174 174 174
GlifName: registered
Width: 1748
VWidth: 0
GlyphClass: 2
Flags: HW
LayerCount: 2
Fore
SplineSet
116 721 m 256
 116 1127 448 1468 874 1468 c 256
 1300 1468 1633 1127 1633 721 c 256
 1633 315 1301 -28 874 -28 c 256
 447 -28 116 315 116 721 c 256
302 721 m 256
 302 393 566 140 874 140 c 256
 1182 140 1447 393 1447 721 c 256
 1447 1049 1182 1300 874 1300 c 256
 566 1300 302 1049 302 721 c 256
743 689 m 257
 897 689 l 258
 990 689 1063 744 1063 834 c 256
 1063 924 991 982 897 982 c 258
 743 982 l 257
 743 689 l 257
1188 376 m 257
 1045 351 l 257
 862 574 l 257
 743 574 l 257
 743 363 l 257
 618 363 l 257
 618 1096 l 257
 897 1096 l 258
 1061 1096 1196 986 1196 834 c 256
 1196 718 1117 630 1010 594 c 257
 1188 376 l 257
EndSplineSet
EndChar

StartChar: s
Encoding: 115 115 175
GlifName: s
Width: 925
VWidth: 0
GlyphClass: 2
Flags: HW
LayerCount: 2
Fore
SplineSet
840 816 m 257
 680 715 l 257
 633 771 575 826 472 826 c 256
 381 826 311 773 311 702 c 256
 311 618 402 587 515 561 c 256
 667 527 841 458 841 265 c 256
 841 65 650 -22 460 -22 c 256
 290 -22 163 34 79 118 c 257
 227 239 l 257
 279 187 362 136 472 136 c 256
 568 136 642 170 642 254 c 256
 642 348 541 384 416 414 c 256
 268 450 116 513 116 690 c 256
 116 867 290 985 482 985 c 256
 646 985 764 914 840 816 c 257
EndSplineSet
EndChar

StartChar: section
Encoding: 167 167 176
GlifName: section
Width: 941
VWidth: 0
GlyphClass: 2
Flags: HW
LayerCount: 2
Fore
SplineSet
858 681 m 256
 858 577 803 508 732 466 c 257
 796 424 846 363 846 263 c 256
 846 63 656 -24 466 -24 c 256
 296 -24 168 32 84 116 c 257
 232 237 l 257
 284 185 368 134 478 134 c 256
 574 134 648 168 648 252 c 256
 648 352 554 376 418 408 c 256
 271 442 122 492 122 666 c 256
 122 760 173 838 249 888 c 257
 183 927 132 986 132 1084 c 256
 132 1261 306 1380 498 1380 c 256
 662 1380 780 1308 856 1210 c 257
 697 1110 l 257
 650 1166 592 1220 489 1220 c 256
 398 1220 327 1168 327 1097 c 256
 327 1009 418 987 540 959 c 256
 692 924 858 872 858 681 c 256
659 671 m 256
 659 754 581 808 482 808 c 256
 393 808 316 753 316 673 c 256
 316 597 404 555 494 555 c 256
 584 555 659 591 659 671 c 256
EndSplineSet
EndChar

StartChar: simpledot
Encoding: 1114122 -1 179
GlifName: simpledot
Width: 2555
VWidth: 0
GlyphClass: 2
Flags: HW
LayerCount: 2
Fore
SplineSet
1102 163 m 257
 1247 308 l 257
 1392 163 l 257
 1247 18 l 257
 1102 163 l 257
EndSplineSet
EndChar

StartChar: slash
Encoding: 47 47 181
GlifName: slash
Width: 1102
VWidth: 0
GlyphClass: 2
Flags: HW
LayerCount: 2
Fore
SplineSet
805 1368 m 257
 998 1269 l 257
 306 -34 l 257
 114 66 l 257
 805 1368 l 257
EndSplineSet
EndChar

StartChar: sterling
Encoding: 163 163 183
GlifName: sterling
Width: 1227
VWidth: 0
GlyphClass: 2
Flags: HW
LayerCount: 2
Fore
SplineSet
640 1166 m 256
 569 1166 496 1107 496 1012 c 258
 496 312 l 258
 496 264 485 216 461 178 c 257
 1112 178 l 257
 1112 0 l 257
 116 0 l 257
 116 178 l 257
 226 178 286 209 286 312 c 258
 286 1001 l 258
 286 1183 434 1346 640 1346 c 256
 839 1346 967 1210 994 1036 c 257
 786 1008 l 257
 774 1097 721 1166 640 1166 c 256
EndSplineSet
Refer: 311 57354 N 1 0 0 1 26 -14 2
EndChar

StartChar: t
Encoding: 116 116 184
GlifName: t
Width: 734
VWidth: 0
GlyphClass: 2
Flags: HW
LayerCount: 2
Fore
SplineSet
688 158 m 257
 688 0 l 257
 499 0 l 257
 330 0 209 132 209 278 c 258
 209 1272 l 257
 419 1272 l 257
 419 247 l 258
 419 193 458 158 504 158 c 258
 688 158 l 257
EndSplineSet
Refer: 311 57354 N 1 0 0 1 -64 334 2
EndChar

StartChar: threequarters
Encoding: 190 190 187
GlifName: threequarters
Width: 2331
VWidth: 0
GlyphClass: 2
Flags: HW
LayerCount: 2
Fore
SplineSet
2074 0 m 257
 2222 0 l 257
 2222 -164 l 257
 2074 -164 l 257
 2074 -417 l 257
 1864 -417 l 257
 1864 -164 l 257
 1324 -164 l 257
 1324 3 l 257
 1866 798 l 257
 2074 798 l 257
 2074 0 l 257
1864 0 m 257
 1864 525 l 257
 1506 0 l 257
 1864 0 l 257
105 844 m 257
 306 844 l 257
 306 686 394 622 524 622 c 256
 646 622 740 689 740 803 c 256
 740 949 653 1006 510 1006 c 258
 402 1006 l 257
 402 1173 l 257
 510 1173 l 258
 640 1173 725 1230 725 1358 c 256
 725 1462 641 1537 529 1537 c 256
 407 1537 331 1473 331 1325 c 257
 129 1325 l 257
 129 1573 307 1713 529 1713 c 256
 727 1713 922 1576 922 1358 c 256
 922 1243 860 1142 772 1093 c 257
 869 1043 938 931 938 803 c 256
 938 585 752 447 524 447 c 256
 292 447 105 586 105 844 c 257
894 -111 m 257
 732 -16 l 257
 1758 1544 l 257
 1919 1448 l 257
 894 -111 l 257
EndSplineSet
EndChar

StartChar: u
Encoding: 117 117 189
GlifName: u
Width: 1168
VWidth: 0
GlyphClass: 2
Flags: HW
LayerCount: 2
Fore
SplineSet
822 964 m 257
 1032 964 l 257
 1032 0 l 257
 822 0 l 257
 822 964 l 257
EndSplineSet
Refer: 314 57357 N -1 0 0 -1 1138 964 2
EndChar

StartChar: underscore
Encoding: 95 95 194
GlifName: underscore
Width: 699
VWidth: 0
GlyphClass: 2
Flags: HW
LayerCount: 2
Fore
SplineSet
726 208 m 257
 726 -2 l 257
 -26 -2 l 257
 -26 208 l 257
 726 208 l 257
EndSplineSet
EndChar

StartChar: uni00AD
Encoding: 173 173 196
GlifName: uni00A_D_
Width: 1021
VWidth: 0
GlyphClass: 2
Flags: HW
LayerCount: 2
Fore
SplineSet
922 656 m 257
 922 498 l 257
 100 498 l 257
 100 656 l 257
 922 656 l 257
EndSplineSet
EndChar

StartChar: uni00B2
Encoding: 178 178 197
GlifName: uni00B_2
Width: 691
VWidth: 0
GlyphClass: 2
Flags: HW
LayerCount: 2
Fore
SplineSet
121 932 m 257
 121 1024 l 257
 412 1280 l 258
 442 1310 455 1327 455 1378 c 256
 455 1455 402 1490 336 1490 c 256
 268 1490 216 1453 216 1372 c 257
 121 1372 l 257
 121 1516 230 1584 336 1584 c 256
 438 1584 550 1518 550 1378 c 256
 550 1300 514 1248 477 1214 c 258
 260 1026 l 257
 555 1026 l 257
 555 932 l 257
 121 932 l 257
EndSplineSet
EndChar

StartChar: uni00B3
Encoding: 179 179 198
GlifName: uni00B_3
Width: 636
VWidth: 0
GlyphClass: 2
Flags: HW
LayerCount: 2
Fore
SplineSet
205 1390 m 257
 110 1390 l 257
 110 1504 206 1584 318 1584 c 256
 427 1584 526 1506 526 1396 c 256
 526 1338 498 1283 444 1255 c 257
 496 1228 526 1172 526 1114 c 256
 526 1004 427 926 318 926 c 256
 206 926 110 1006 110 1120 c 257
 205 1120 l 257
 205 1068 247 1020 318 1020 c 256
 386 1020 432 1066 432 1114 c 256
 432 1162 386 1210 318 1210 c 258
 249 1210 l 257
 249 1300 l 257
 318 1300 l 258
 386 1300 432 1348 432 1396 c 256
 432 1444 386 1489 318 1489 c 256
 247 1489 205 1442 205 1390 c 257
EndSplineSet
EndChar

StartChar: uni00B9
Encoding: 185 185 199
GlifName: uni00B_9
Width: 478
VWidth: 0
GlyphClass: 2
Flags: HW
LayerCount: 2
Fore
SplineSet
88 1361 m 257
 88 1456 l 257
 248 1456 l 257
 248 1563 l 257
 342 1563 l 257
 342 900 l 257
 248 900 l 257
 248 1361 l 257
 88 1361 l 257
EndSplineSet
EndChar

StartChar: uni0237
Encoding: 567 567 200
GlifName: uni0237
Width: 472
VWidth: 0
GlyphClass: 2
Flags: HW
LayerCount: 2
Fore
SplineSet
132 -136 m 258
 132 964 l 257
 342 964 l 257
 342 -136 l 258
 342 -282 220 -415 51 -415 c 258
 -100 -415 l 257
 -100 -226 l 257
 46 -226 l 258
 92 -226 132 -190 132 -136 c 258
EndSplineSet
EndChar

StartChar: uni060C
Encoding: 1548 1548 201
GlifName: uni060C_
Width: 579
VWidth: 0
GlyphClass: 2
Flags: HW
LayerCount: 2
Fore
SplineSet
438 144 m 256
 438 64 383 0 297 0 c 256
 203 0 142 66 142 206 c 256
 142 367 226 508 325 600 c 257
 402 529 l 257
 338 465 270 371 256 283 c 257
 348 299 438 243 438 144 c 256
EndSplineSet
EndChar

StartChar: uni0615
Encoding: 1557 1557 202
GlifName: uni0615
Width: 0
VWidth: 0
GlyphClass: 4
Flags: H
AnchorPoint: "Anchor-1" 0 1296 mark 0
AnchorPoint: "Anchor-4" 0 1296 mark 0
AnchorPoint: "Anchor-5" 0 1296 mark 0
AnchorPoint: "Anchor-1" 0 1652 basechar 0
LayerCount: 2
Fore
SplineSet
290 1802 m 256
 290 1615 62 1608 -160 1606 c 258
 -290 1606 l 257
 -290 1700 l 257
 -174 1700 l 257
 -174 2144 l 257
 -80 2144 l 257
 -80 1846 l 257
 -16 1920 57 1959 129 1959 c 256
 217 1959 290 1898 290 1802 c 256
-67 1702 m 257
 135 1709 195 1740 195 1802 c 256
 195 1844 173 1864 129 1864 c 256
 79 1864 -1 1820 -67 1702 c 257
EndSplineSet
EndChar

StartChar: uni061F
Encoding: 1567 1567 204
GlifName: uni061F_
Width: 1088
VWidth: 0
GlyphClass: 2
Flags: HW
LayerCount: 2
Fore
SplineSet
557 248 m 256
 626 248 683 193 683 124 c 256
 683 55 626 0 557 0 c 256
 488 0 432 55 432 124 c 256
 432 193 488 248 557 248 c 256
663 404 m 257
 466 404 l 257
 466 527 395 589 310 657 c 256
 222 727 138 816 138 956 c 256
 138 1159 282 1356 550 1356 c 256
 822 1356 951 1163 951 974 c 256
 951 939 946 893 940 855 c 257
 749 878 l 257
 755 909 760 941 760 974 c 256
 760 1091 698 1187 550 1187 c 256
 418 1187 335 1095 335 981 c 256
 335 863 399 789 482 717 c 256
 572 639 663 554 663 404 c 257
EndSplineSet
EndChar

StartChar: uni0660
Encoding: 1632 1632 256
GlifName: uni0660
Width: 909
VWidth: 0
GlyphClass: 2
Flags: HW
LayerCount: 2
Fore
SplineSet
454 660 m 256
 362 660 292 590 292 498 c 256
 292 406 363 334 454 334 c 256
 545 334 618 406 618 498 c 256
 618 589 546 660 454 660 c 256
454 836 m 256
 641 836 794 686 794 498 c 256
 794 310 643 158 454 158 c 256
 265 158 116 311 116 498 c 256
 116 686 266 836 454 836 c 256
EndSplineSet
PairPos2: "'kern' Horizontal Kerning in Arabic lookup 7 per glyph data 0" uni0661 dx=53 dy=0 dh=53 dv=0 dx=0 dy=0 dh=0 dv=0
PairPos2: "'kern' Horizontal Kerning in Arabic lookup 7 per glyph data 0" uni0667 dx=-105 dy=0 dh=-105 dv=0 dx=0 dy=0 dh=0 dv=0
PairPos2: "'kern' Horizontal Kerning in Arabic lookup 7 per glyph data 0" uni0666 dx=-26 dy=0 dh=-26 dv=0 dx=0 dy=0 dh=0 dv=0
PairPos2: "'kern' Horizontal Kerning in Arabic lookup 7 per glyph data 0" uni0662 dx=-131 dy=0 dh=-131 dv=0 dx=0 dy=0 dh=0 dv=0
EndChar

StartChar: uni0661
Encoding: 1633 1633 257
GlifName: uni0661
Width: 674
VWidth: 0
GlyphClass: 2
Flags: HW
LayerCount: 2
Fore
SplineSet
546 0 m 257
 335 0 l 257
 335 512 259 835 100 1287 c 257
 298 1356 l 257
 463 888 546 534 546 0 c 257
EndSplineSet
PairPos2: "'kern' Horizontal Kerning in Arabic lookup 7 per glyph data 0" uni0665 dx=-53 dy=0 dh=-53 dv=0 dx=0 dy=0 dh=0 dv=0
PairPos2: "'kern' Horizontal Kerning in Arabic lookup 7 per glyph data 0" uni0660 dx=-53 dy=0 dh=-53 dv=0 dx=0 dy=0 dh=0 dv=0
EndChar

StartChar: uni0662
Encoding: 1634 1634 258
GlifName: uni0662
Width: 1108
VWidth: 0
GlyphClass: 2
Flags: HW
LayerCount: 2
Fore
SplineSet
593 878 m 256
 765 878 785 1048 785 1350 c 257
 995 1350 l 257
 995 1086 990 668 608 668 c 256
 565 668 522 677 482 700 c 257
 524 470 546 263 546 0 c 257
 335 0 l 257
 335 522 233 884 100 1294 c 257
 300 1356 l 257
 400 1017 443 878 593 878 c 256
EndSplineSet
EndChar

StartChar: uni0663
Encoding: 1635 1635 259
GlifName: uni0663
Width: 1458
VWidth: 0
GlyphClass: 2
Flags: HW
LayerCount: 2
Fore
SplineSet
882 1314 m 257
 876 1234 872 1170 872 1093 c 256
 872 956 900 892 999 892 c 256
 1108 892 1133 996 1133 1136 c 256
 1133 1198 1124 1265 1114 1319 c 257
 1320 1356 l 257
 1332 1294 1344 1222 1344 1136 c 256
 1344 899 1242 682 992 682 c 256
 879 682 808 737 763 815 c 257
 721 736 664 682 562 682 c 256
 530 682 503 690 478 706 c 257
 520 478 541 261 541 0 c 257
 330 0 l 257
 330 522 232 904 100 1290 c 257
 298 1356 l 257
 396 1004 435 892 543 892 c 256
 671 892 693 1053 706 1324 c 257
 882 1314 l 257
EndSplineSet
PairPos2: "'kern' Horizontal Kerning in Arabic lookup 7 per glyph data 0" uni0668 dx=-53 dy=0 dh=-53 dv=0 dx=0 dy=0 dh=0 dv=0
EndChar

StartChar: uni0664
Encoding: 1636 1636 260
GlifName: uni0664
Width: 1026
VWidth: 0
GlyphClass: 2
Flags: HW
LayerCount: 2
Fore
SplineSet
364 683 m 257
 250 725 176 798 176 928 c 256
 176 1182 448 1321 736 1356 c 257
 762 1154 l 257
 492 1118 388 1022 388 930 c 256
 388 823 490 786 764 786 c 257
 764 601 l 257
 512 601 324 502 324 348 c 256
 324 230 452 205 590 205 c 258
 896 205 l 257
 896 0 l 257
 564 0 l 258
 340 0 114 80 114 326 c 256
 114 474 203 607 364 683 c 257
EndSplineSet
PairPos2: "'kern' Horizontal Kerning in Arabic lookup 7 per glyph data 0" uni0666 dx=53 dy=0 dh=53 dv=0 dx=0 dy=0 dh=0 dv=0
EndChar

StartChar: uni0665
Encoding: 1637 1637 261
GlifName: uni0665
Width: 1226
VWidth: 0
GlyphClass: 2
Flags: HW
LayerCount: 2
Fore
SplineSet
510 1356 m 257
 790 1132 1118 814 1118 414 c 256
 1118 102 909 -21 619 -21 c 256
 340 -21 109 98 109 410 c 256
 109 662 247 892 485 1100 c 257
 453 1130 412 1167 376 1196 c 257
 510 1356 l 257
620 964 m 257
 403 766 319 588 319 418 c 256
 319 257 417 189 619 189 c 256
 823 189 908 250 908 420 c 256
 908 590 802 778 620 964 c 257
EndSplineSet
PairPos2: "'kern' Horizontal Kerning in Arabic lookup 7 per glyph data 0" uni0661 dx=53 dy=0 dh=53 dv=0 dx=0 dy=0 dh=0 dv=0
PairPos2: "'kern' Horizontal Kerning in Arabic lookup 7 per glyph data 0" uni0667 dx=-105 dy=0 dh=-105 dv=0 dx=0 dy=0 dh=0 dv=0
EndChar

StartChar: uni0666
Encoding: 1638 1638 262
GlifName: uni0666
Width: 1179
VWidth: 0
GlyphClass: 2
Flags: HW
LayerCount: 2
Fore
SplineSet
99 1148 m 257
 132 1356 l 257
 286 1338 430 1332 574 1332 c 256
 679 1332 768 1339 842 1352 c 257
 946 1260 l 257
 942 1158 939 1062 939 964 c 256
 939 569 976 371 1066 31 c 257
 862 -20 l 257
 770 328 729 555 729 964 c 256
 729 1018 729 1070 731 1128 c 257
 685 1124 637 1123 570 1123 c 256
 417 1123 259 1128 99 1148 c 257
EndSplineSet
PairPos2: "'kern' Horizontal Kerning in Arabic lookup 7 per glyph data 0" uni0664 dx=-53 dy=0 dh=-53 dv=0 dx=0 dy=0 dh=0 dv=0
PairPos2: "'kern' Horizontal Kerning in Arabic lookup 7 per glyph data 0" uni0665 dx=-184 dy=0 dh=-184 dv=0 dx=0 dy=0 dh=0 dv=0
PairPos2: "'kern' Horizontal Kerning in Arabic lookup 7 per glyph data 0" uni0660 dx=-210 dy=0 dh=-210 dv=0 dx=0 dy=0 dh=0 dv=0
PairPos2: "'kern' Horizontal Kerning in Arabic lookup 7 per glyph data 0" uni066B dx=-158 dy=0 dh=-158 dv=0 dx=0 dy=0 dh=0 dv=0
PairPos2: "'kern' Horizontal Kerning in Arabic lookup 7 per glyph data 0" uni0668 dx=-210 dy=0 dh=-210 dv=0 dx=0 dy=0 dh=0 dv=0
EndChar

StartChar: uni0667
Encoding: 1639 1639 263
GlifName: uni0667
Width: 1363
VWidth: 0
GlyphClass: 2
Flags: HW
LayerCount: 2
Fore
SplineSet
1103 1356 m 257
 1269 1226 l 257
 1011 892 864 636 776 0 c 257
 588 0 l 257
 504 616 364 876 94 1226 c 257
 261 1356 l 257
 465 1093 620 816 682 421 c 257
 743 816 899 1093 1103 1356 c 257
EndSplineSet
PairPos2: "'kern' Horizontal Kerning in Arabic lookup 7 per glyph data 0" uni0660 dx=-105 dy=0 dh=-105 dv=0 dx=0 dy=0 dh=0 dv=0
PairPos2: "'kern' Horizontal Kerning in Arabic lookup 7 per glyph data 0" uni0665 dx=-105 dy=0 dh=-105 dv=0 dx=0 dy=0 dh=0 dv=0
PairPos2: "'kern' Horizontal Kerning in Arabic lookup 7 per glyph data 0" uni0668 dx=-158 dy=0 dh=-158 dv=0 dx=0 dy=0 dh=0 dv=0
PairPos2: "'kern' Horizontal Kerning in Arabic lookup 7 per glyph data 0" uni066B dx=-131 dy=0 dh=-131 dv=0 dx=0 dy=0 dh=0 dv=0
EndChar

StartChar: uni0668
Encoding: 1640 1640 264
GlifName: uni0668
Width: 1363
VWidth: 0
GlyphClass: 2
Flags: HW
LayerCount: 2
Fore
SplineSet
260 -21 m 257
 94 108 l 257
 352 442 500 699 588 1335 c 257
 774 1335 l 257
 858 719 999 458 1269 108 c 257
 1102 -20 l 257
 898 243 743 519 681 914 c 257
 620 519 464 242 260 -21 c 257
EndSplineSet
PairPos2: "'kern' Horizontal Kerning in Arabic lookup 7 per glyph data 0" uni0663 dx=-210 dy=0 dh=-210 dv=0 dx=0 dy=0 dh=0 dv=0
PairPos2: "'kern' Horizontal Kerning in Arabic lookup 7 per glyph data 0" uni0662 dx=-184 dy=0 dh=-184 dv=0 dx=0 dy=0 dh=0 dv=0
PairPos2: "'kern' Horizontal Kerning in Arabic lookup 7 per glyph data 0" uni0667 dx=-158 dy=0 dh=-158 dv=0 dx=0 dy=0 dh=0 dv=0
EndChar

StartChar: uni0669
Encoding: 1641 1641 265
GlifName: uni0669
Width: 1107
VWidth: 0
GlyphClass: 2
Flags: HW
LayerCount: 2
Fore
SplineSet
668 562 m 257
 613 548 558 540 498 540 c 256
 298 540 105 623 105 887 c 256
 105 1105 215 1354 480 1354 c 256
 766 1354 852 1101 856 855 c 256
 857 731 862 622 874 530 c 257
 884 314 919 204 976 74 c 257
 783 -10 l 257
 711 172 676 352 668 562 c 257
652 770 m 257
 650 858 l 258
 646 1050 588 1144 480 1144 c 256
 382 1144 304 1049 304 900 c 256
 304 788 356 748 490 748 c 256
 551 748 601 756 652 770 c 257
EndSplineSet
PairPos2: "'kern' Horizontal Kerning in Arabic lookup 7 per glyph data 0" uni066B dx=210 dy=0 dh=210 dv=0 dx=0 dy=0 dh=0 dv=0
PairPos2: "'kern' Horizontal Kerning in Arabic lookup 7 per glyph data 0" uni0668 dx=-158 dy=0 dh=-158 dv=0 dx=0 dy=0 dh=0 dv=0
PairPos2: "'kern' Horizontal Kerning in Arabic lookup 7 per glyph data 0" uni0665 dx=-53 dy=0 dh=-53 dv=0 dx=0 dy=0 dh=0 dv=0
EndChar

StartChar: uni066B
Encoding: 1643 1643 267
GlifName: uni066B_
Width: 826
VWidth: 0
GlyphClass: 2
Flags: HW
LayerCount: 2
Fore
SplineSet
271 -618 m 257
 75 -542 l 257
 565 708 l 257
 761 632 l 257
 271 -618 l 257
EndSplineSet
PairPos2: "'kern' Horizontal Kerning in Arabic lookup 7 per glyph data 1" uni06F7 dx=-105 dy=0 dh=-105 dv=0 dx=0 dy=0 dh=0 dv=0
PairPos2: "'kern' Horizontal Kerning in Arabic lookup 7 per glyph data 1" uni06F0 dx=-53 dy=0 dh=-53 dv=0 dx=0 dy=0 dh=0 dv=0
PairPos2: "'kern' Horizontal Kerning in Arabic lookup 7 per glyph data 1" uni06F3 dx=-79 dy=0 dh=-79 dv=0 dx=0 dy=0 dh=0 dv=0
PairPos2: "'kern' Horizontal Kerning in Arabic lookup 7 per glyph data 1" uni06F2 dx=-105 dy=0 dh=-105 dv=0 dx=0 dy=0 dh=0 dv=0
PairPos2: "'kern' Horizontal Kerning in Arabic lookup 7 per glyph data 1" uni066B dx=-53 dy=0 dh=-53 dv=0 dx=0 dy=0 dh=0 dv=0
PairPos2: "'kern' Horizontal Kerning in Arabic lookup 7 per glyph data 0" uni0663 dx=-158 dy=0 dh=-158 dv=0 dx=0 dy=0 dh=0 dv=0
PairPos2: "'kern' Horizontal Kerning in Arabic lookup 7 per glyph data 0" uni0662 dx=-105 dy=0 dh=-105 dv=0 dx=0 dy=0 dh=0 dv=0
PairPos2: "'kern' Horizontal Kerning in Arabic lookup 7 per glyph data 0" uni0667 dx=-105 dy=0 dh=-105 dv=0 dx=0 dy=0 dh=0 dv=0
EndChar

StartChar: uni066C
Encoding: 1644 1644 268
GlifName: uni066C_
Width: 616
VWidth: 0
GlyphClass: 2
Flags: HW
LayerCount: 2
Fore
SplineSet
230 -324 m 257
 148 -241 l 257
 220 -169 289 -80 316 0 c 257
 247 0 144 60 144 162 c 256
 144 250 209 327 298 327 c 256
 389 327 472 269 472 129 c 256
 472 -39 356 -218 230 -324 c 257
EndSplineSet
EndChar

StartChar: uni066D
Encoding: 1645 1645 269
GlifName: uni066D_
Width: 955
VWidth: 0
GlyphClass: 2
Flags: HW
LayerCount: 2
Fore
SplineSet
552 662 m 257
 404 662 l 257
 408 984 l 257
 134 820 l 257
 58 948 l 257
 339 1104 l 257
 58 1260 l 257
 134 1390 l 257
 408 1226 l 257
 404 1545 l 257
 552 1545 l 257
 548 1226 l 257
 822 1390 l 257
 896 1260 l 257
 616 1104 l 257
 896 948 l 257
 822 820 l 257
 548 984 l 257
 552 662 l 257
EndSplineSet
EndChar

StartChar: uni06F4
Encoding: 1780 1780 295
GlifName: uni06F_4
Width: 1194
VWidth: 0
GlyphClass: 2
Flags: HW
LayerCount: 2
Fore
SplineSet
478 664 m 257
 519 431 538 254 538 0 c 257
 328 0 l 257
 328 504 226 858 99 1276 c 257
 304 1340 l 257
 342 1238 386 1094 414 964 c 257
 434 1196 600 1356 790 1356 c 256
 874 1356 960 1331 1035 1287 c 257
 950 1096 l 257
 896 1130 845 1146 778 1146 c 256
 652 1146 543 1043 543 896 c 256
 543 771 655 741 787 741 c 256
 871 741 957 754 1032 776 c 257
 1059 571 l 257
 977 546 896 534 820 534 c 256
 686 534 557 574 478 664 c 257
EndSplineSet
PairPos2: "'kern' Horizontal Kerning in Arabic lookup 7 per glyph data 1" uni06F0 dx=-26 dy=0 dh=-26 dv=0 dx=0 dy=0 dh=0 dv=0
PairPos2: "'kern' Horizontal Kerning in Arabic lookup 7 per glyph data 1" uni06F8 dx=-53 dy=0 dh=-53 dv=0 dx=0 dy=0 dh=0 dv=0
EndChar

StartChar: uni06F5
Encoding: 1781 1781 296
GlifName: uni06F_5
Width: 1271
VWidth: 0
GlyphClass: 2
Flags: HW
LayerCount: 2
Fore
SplineSet
636 110 m 257
 595 27 525 -10 419 -10 c 256
 231 -10 96 125 96 366 c 256
 96 604 208 846 496 1106 c 257
 466 1132 418 1168 385 1192 c 257
 502 1354 l 257
 570 1306 638 1257 698 1202 c 256
 993 934 1176 648 1176 370 c 256
 1176 119 1040 -10 858 -10 c 256
 756 -10 680 28 636 110 c 257
587 364 m 257
 689 364 l 257
 699 320 l 258
 715 234 775 200 845 200 c 256
 908 200 976 235 976 374 c 256
 976 542 856 746 634 972 c 257
 366 744 295 542 295 390 c 256
 295 237 367 200 433 200 c 256
 508 200 561 238 577 318 c 258
 587 364 l 257
EndSplineSet
PairPos2: "'kern' Horizontal Kerning in Arabic lookup 7 per glyph data 1" uni06F1 dx=53 dy=0 dh=53 dv=0 dx=0 dy=0 dh=0 dv=0
PairPos2: "'kern' Horizontal Kerning in Arabic lookup 7 per glyph data 1" uni06F2 dx=-26 dy=0 dh=-26 dv=0 dx=0 dy=0 dh=0 dv=0
PairPos2: "'kern' Horizontal Kerning in Arabic lookup 7 per glyph data 1" uni06F3 dx=-26 dy=0 dh=-26 dv=0 dx=0 dy=0 dh=0 dv=0
PairPos2: "'kern' Horizontal Kerning in Arabic lookup 7 per glyph data 1" uni06F7 dx=-105 dy=0 dh=-105 dv=0 dx=0 dy=0 dh=0 dv=0
PairPos2: "'kern' Horizontal Kerning in Arabic lookup 7 per glyph data 1" uni06F9 dx=-79 dy=0 dh=-79 dv=0 dx=0 dy=0 dh=0 dv=0
EndChar

StartChar: uni06F6
Encoding: 1782 1782 297
GlifName: uni06F_6
Width: 1114
VWidth: 0
GlyphClass: 2
Flags: HW
LayerCount: 2
Fore
SplineSet
591 748 m 256
 715 748 828 796 916 841 c 257
 1021 656 l 257
 711 498 474 251 290 -21 c 257
 108 83 l 257
 237 277 363 418 523 552 c 257
 328 569 120 684 120 930 c 256
 120 1179 306 1368 548 1368 c 256
 705 1368 796 1310 880 1240 c 257
 746 1078 l 257
 696 1126 636 1158 548 1158 c 256
 420 1158 330 1067 330 937 c 256
 330 805 445 748 591 748 c 256
EndSplineSet
EndChar

StartChar: uniE000
Encoding: 57344 57344 301
GlifName: uniE_000
Width: 115
VWidth: 0
GlyphClass: 2
Flags: HW
LayerCount: 2
Fore
SplineSet
0 210 m 258
 116 210 l 257
 116 0 l 257
 0 0 l 258
 -58 0 -106 48 -106 106 c 256
 -106 164 -58 210 0 210 c 258
EndSplineSet
EndChar

StartChar: uniE001
Encoding: 57345 57345 302
GlifName: uniE_001
Width: 325
VWidth: 0
GlyphClass: 2
Flags: HW
LayerCount: 2
Fore
SplineSet
0 210 m 258
 326 210 l 257
 326 0 l 257
 0 0 l 258
 -58 0 -106 48 -106 106 c 256
 -106 164 -58 210 0 210 c 258
EndSplineSet
EndChar

StartChar: uniE002
Encoding: 57346 57346 303
GlifName: uniE_002
Width: 456
VWidth: 0
GlyphClass: 2
Flags: HW
LayerCount: 2
Fore
SplineSet
0 210 m 258
 457 210 l 257
 457 0 l 257
 0 0 l 258
 -58 0 -106 48 -106 106 c 256
 -106 164 -58 210 0 210 c 258
EndSplineSet
EndChar

StartChar: uniE003
Encoding: 57347 57347 304
GlifName: uniE_003
Width: 1850
VWidth: 0
GlyphClass: 2
Flags: HW
LayerCount: 2
Fore
SplineSet
1320 1378 m 257
 1425 1272 l 257
 200 -39 l 257
 94 68 l 257
 1320 1378 l 257
EndSplineSet
EndChar

StartChar: uniE004
Encoding: 57348 57348 305
GlifName: uniE_004
Width: 1142
VWidth: 0
GlyphClass: 2
Flags: HW
LayerCount: 2
Fore
SplineSet
160 -82 m 257
 52 -1 l 257
 856 1024 l 257
 964 943 l 257
 160 -82 l 257
EndSplineSet
EndChar

StartChar: uniE005
Encoding: 57349 57349 306
GlifName: uniE_005
Width: 1535
VWidth: 0
GlyphClass: 2
Flags: HW
LayerCount: 2
Fore
SplineSet
1446 29 m 257
 1331 -66 l 257
 844 520 l 257
 959 616 l 257
 1446 29 l 257
EndSplineSet
EndChar

StartChar: uniE006
Encoding: 57350 57350 307
GlifName: uniE_006
Width: 1203
VWidth: 0
GlyphClass: 2
Flags: HW
LayerCount: 2
Fore
SplineSet
232 164 m 257
 232 296 l 257
 972 296 l 257
 972 164 l 257
 232 164 l 257
232 444 m 257
 232 575 l 257
 972 575 l 257
 972 444 l 257
 232 444 l 257
EndSplineSet
EndChar

StartChar: uniE007
Encoding: 57351 57351 308
GlifName: uniE_007
Width: 912
VWidth: 0
GlyphClass: 2
Flags: HW
LayerCount: 2
Fore
SplineSet
588 1630 m 257
 558 1646 517 1658 485 1658 c 256
 407 1658 364 1602 364 1558 c 256
 364 1510 397 1498 472 1476 c 256
 536 1457 612 1424 612 1326 c 256
 612 1202 484 1148 366 1148 c 256
 299 1148 244 1160 194 1184 c 257
 234 1270 l 257
 270 1254 310 1242 366 1242 c 256
 461 1242 518 1277 518 1317 c 256
 518 1353 499 1368 434 1388 c 256
 366 1408 270 1442 270 1556 c 256
 270 1670 367 1752 485 1752 c 256
 541 1752 582 1736 624 1716 c 257
 588 1630 l 257
EndSplineSet
EndChar

StartChar: uniE008
Encoding: 57352 57352 309
GlifName: uniE_008
Width: 1527
VWidth: 0
GlyphClass: 2
Flags: HW
LayerCount: 2
Fore
SplineSet
546 1218 m 256
 546 1296 488 1362 412 1362 c 256
 336 1362 276 1296 276 1218 c 256
 276 1140 336 1080 412 1080 c 256
 486 1080 546 1140 546 1218 c 256
687 1219 m 256
 687 1067 566 940 412 940 c 256
 258 940 135 1067 135 1219 c 256
 135 1365 250 1503 412 1503 c 256
 575 1503 687 1365 687 1219 c 256
EndSplineSet
EndChar

StartChar: uniE009
Encoding: 57353 57353 310
GlifName: uniE_009
Width: 1203
VWidth: 0
GlyphClass: 2
Flags: HW
LayerCount: 2
Fore
SplineSet
532 1576 m 257
 640 1576 l 257
 640 -206 l 257
 532 -206 l 257
 532 1576 l 257
EndSplineSet
EndChar

StartChar: uniE00A
Encoding: 57354 57354 311
GlifName: uniE_00A_
Width: 1275
VWidth: 0
GlyphClass: 2
Flags: HW
LayerCount: 2
Fore
SplineSet
90 499 m 257
 90 638 l 257
 750 638 l 257
 750 499 l 257
 90 499 l 257
EndSplineSet
EndChar

StartChar: uniE00B
Encoding: 57355 57355 312
GlifName: uniE_00B_
Width: 1163
VWidth: 0
GlyphClass: 2
Flags: HW
LayerCount: 2
Fore
SplineSet
782 339 m 257
 738 143 625 -21 393 -21 c 256
 231 -21 110 70 110 234 c 256
 110 464 347 572 581 572 c 256
 664 572 734 558 806 538 c 257
 734 432 l 257
 691 442 642 448 594 448 c 256
 446 448 304 374 304 258 c 256
 304 181 356 144 448 144 c 256
 578 144 674 220 704 344 c 257
 782 339 l 257
EndSplineSet
EndChar

StartChar: uniE00C
Encoding: 57356 57356 313
GlifName: uniE_00C_
Width: 1613
VWidth: 0
GlyphClass: 2
Flags: HW
LayerCount: 2
Fore
SplineSet
846 644 m 257
 910 820 1002 985 1230 985 c 256
 1466 985 1519 813 1519 603 c 258
 1519 0 l 257
 1309 0 l 257
 1309 574 l 258
 1309 704 1248 796 1118 796 c 256
 993 796 936 706 900 608 c 257
 846 644 l 257
EndSplineSet
EndChar

StartChar: uniE00D
Encoding: 57357 57357 314
GlifName: uniE_00D_
Width: 1110
VWidth: 0
GlyphClass: 2
Flags: HW
LayerCount: 2
Fore
SplineSet
244 594 m 257
 344 822 438 985 671 985 c 256
 925 985 1001 805 1001 562 c 258
 1001 0 l 257
 791 0 l 257
 791 530 l 258
 791 706 723 796 589 796 c 256
 446 796 377 693 314 550 c 257
 244 594 l 257
EndSplineSet
EndChar

StartChar: uniE00E
Encoding: 57358 57358 315
GlifName: uniE_00E_
Width: 791
VWidth: 0
GlyphClass: 2
Flags: HW
LayerCount: 2
Fore
SplineSet
315 566 m 257
 237 571 l 257
 259 841 350 1169 668 1169 c 258
 702 1169 l 257
 702 974 l 257
 632 974 l 258
 432 974 335 794 315 566 c 257
EndSplineSet
EndChar

StartChar: uniE00F
Encoding: 57359 57359 316
GlifName: uniE_00F_
Width: 1195
VWidth: 0
GlyphClass: 2
Flags: HW
LayerCount: 2
Fore
SplineSet
598 826 m 256
 430 826 336 680 336 482 c 256
 336 284 429 138 598 138 c 256
 767 138 860 284 860 482 c 256
 860 680 766 826 598 826 c 256
666 985 m 256
 939 985 1070 742 1070 482 c 256
 1070 222 938 -20 666 -20 c 256
 394 -20 262 222 262 482 c 256
 262 742 393 985 666 985 c 256
EndSplineSet
EndChar

StartChar: uniE020
Encoding: 57376 57376 326
GlifName: uniE_020
Width: 900
VWidth: 0
GlyphClass: 2
Flags: HW
LayerCount: 2
Fore
SplineSet
695 676 m 257
 580 581 l 257
 546 621 496 657 418 657 c 256
 329 657 252 584 252 486 c 256
 252 372 324 314 448 298 c 257
 750 421 l 257
 806 283 l 257
 152 12 l 257
 94 151 l 257
 272 224 l 257
 186 259 102 342 102 470 c 256
 102 668 245 806 418 806 c 256
 548 806 641 740 695 676 c 257
EndSplineSet
EndChar

StartChar: uniE021
Encoding: 57377 57377 327
GlifName: uniE_021
Width: 525
VWidth: 0
GlyphClass: 2
Flags: HW
LayerCount: 2
Fore
SplineSet
542 1764 m 257
 647 1716 l 257
 585 1576 512 1519 402 1519 c 256
 358 1519 303 1534 244 1554 c 256
 196 1571 154 1586 122 1586 c 256
 64 1586 24 1539 -23 1473 c 257
 -122 1532 l 257
 -51 1669 40 1732 134 1732 c 256
 180 1732 225 1720 289 1696 c 256
 344 1676 382 1662 418 1662 c 256
 462 1662 502 1689 542 1764 c 257
368 1335 m 257
 368 13 l 257
 158 13 l 257
 158 1335 l 257
 368 1335 l 257
EndSplineSet
EndChar

StartChar: uniE022
Encoding: 57378 57378 328
GlifName: uniE_022
Width: 525
VWidth: 0
GlyphClass: 2
Flags: HW
LayerCount: 2
Fore
SplineSet
368 13 m 257
 158 13 l 257
 158 1335 l 257
 368 1335 l 257
 368 13 l 257
EndSplineSet
EndChar

StartChar: uniE023
Encoding: 57379 57379 329
GlifName: uniE_023
Width: 1411
VWidth: 0
GlyphClass: 2
Flags: HW
LayerCount: 2
Fore
SplineSet
1274 -436 m 257
 1349 -632 l 257
 1173 -705 981 -748 767 -748 c 256
 401 -748 82 -591 82 -213 c 256
 82 218 525 440 1004 576 c 257
 608 712 l 258
 570 724 537 730 508 730 c 256
 394 730 329 650 309 470 c 257
 121 500 l 257
 151 740 275 940 511 940 c 256
 567 940 626 930 692 904 c 257
 1298 682 l 257
 1298 458 l 257
 704 304 292 101 292 -213 c 256
 292 -429 479 -531 755 -531 c 256
 947 -531 1126 -492 1274 -436 c 257
EndSplineSet
EndChar

StartChar: uniE024
Encoding: 57380 57380 330
GlifName: uniE_024
Width: 977
VWidth: 0
GlyphClass: 2
Flags: HW
LayerCount: 2
Fore
SplineSet
896 368 m 256
 896 98 631 0 378 0 c 256
 272 0 165 16 71 41 c 257
 120 240 l 257
 189 223 282 210 372 210 c 256
 552 210 688 260 688 380 c 256
 688 508 584 671 364 856 c 257
 499 1016 l 257
 741 813 896 607 896 368 c 256
EndSplineSet
EndChar

StartChar: uniE025
Encoding: 57381 57381 331
GlifName: uniE_025
Width: 840
VWidth: 0
GlyphClass: 2
Flags: HW
LayerCount: 2
Fore
SplineSet
442 610 m 257
 638 688 l 257
 708 510 760 327 760 162 c 256
 760 -174 508 -416 134 -552 c 257
 63 -354 l 257
 372 -241 550 -80 550 162 c 256
 550 287 506 452 442 610 c 257
EndSplineSet
EndChar

StartChar: uniE026
Encoding: 57382 57382 332
GlifName: uniE_026
Width: 2488
VWidth: 0
GlyphClass: 2
Flags: HW
LayerCount: 2
Fore
SplineSet
2352 791 m 257
 2386 662 2408 547 2408 408 c 256
 2408 192 2292 0 2056 0 c 256
 1958 0 1840 38 1788 148 c 257
 1745 46 1664 0 1562 0 c 256
 1488 0 1424 20 1370 62 c 257
 1358 -294 1105 -494 729 -494 c 256
 339 -494 82 -298 82 106 c 256
 82 300 126 499 170 627 c 257
 362 566 l 257
 326 445 286 284 286 132 c 256
 286 -134 406 -283 730 -283 c 256
 1044 -283 1170 -150 1170 106 c 256
 1170 278 1120 427 1048 607 c 257
 1248 699 l 257
 1347 396 l 258
 1391 261 1435 210 1546 210 c 256
 1638 210 1688 268 1698 440 c 258
 1711 649 l 257
 1894 644 l 257
 1885 462 l 258
 1873 286 1939 210 2051 210 c 256
 2163 210 2198 284 2198 408 c 256
 2198 529 2178 634 2148 742 c 257
 2352 791 l 257
EndSplineSet
EndChar

StartChar: uniE027
Encoding: 57383 57383 333
GlifName: uniE_027
Width: 2438
VWidth: 0
GlyphClass: 2
Flags: HW
LayerCount: 2
Fore
SplineSet
1698 0 m 256
 1586 0 1472 17 1374 54 c 257
 1345 -304 1113 -500 734 -500 c 256
 334 -500 82 -304 82 111 c 256
 82 305 126 499 170 627 c 257
 364 564 l 257
 324 446 286 276 286 126 c 256
 286 -146 406 -288 735 -288 c 256
 1061 -288 1172 -131 1172 106 c 256
 1172 270 1110 458 1052 602 c 257
 1248 692 l 257
 1292 582 1326 469 1350 356 c 257
 1531 660 1774 807 1972 807 c 256
 2169 807 2358 673 2358 445 c 256
 2358 125 1973 0 1698 0 c 256
1510 236 m 257
 1568 219 1634 210 1698 210 c 256
 1992 210 2148 317 2148 434 c 256
 2148 530 2074 597 1961 597 c 256
 1843 597 1670 516 1510 236 c 257
EndSplineSet
EndChar

StartChar: uniE028
Encoding: 57384 57384 334
GlifName: uniE_028
Width: 1554
VWidth: 0
GlyphClass: 2
Flags: HW
LayerCount: 2
Fore
SplineSet
618 230 m 257
 618 210 l 257
 1200 214 1263 339 1263 464 c 256
 1263 554 1196 618 1090 618 c 256
 974 618 749 519 618 230 c 257
384 210 m 257
 384 1335 l 257
 594 1335 l 257
 594 508 l 257
 754 732 950 828 1114 828 c 256
 1284 828 1473 704 1473 480 c 256
 1473 164 1216 0 489 0 c 258
 71 0 l 257
 71 210 l 257
 384 210 l 257
EndSplineSet
EndChar

StartChar: uniE029
Encoding: 57385 57385 335
GlifName: uniE_029
Width: 1350
VWidth: 0
GlyphClass: 2
Flags: HW
LayerCount: 2
Fore
SplineSet
1028 1011 m 257
 880 888 l 257
 824 954 745 1018 622 1018 c 256
 482 1018 368 909 368 758 c 256
 368 607 520 552 727 552 c 256
 831 552 942 568 1039 586 c 257
 1070 371 l 257
 608 311 292 146 292 -174 c 256
 292 -418 515 -514 775 -514 c 256
 915 -514 1070 -486 1198 -436 c 257
 1282 -630 l 257
 1130 -698 952 -734 778 -734 c 256
 416 -734 82 -573 82 -201 c 256
 82 73 251 279 444 388 c 257
 304 437 158 549 158 733 c 256
 158 1019 374 1228 622 1228 c 256
 826 1228 944 1117 1028 1011 c 257
EndSplineSet
EndChar

StartChar: uniE02A
Encoding: 57386 57386 336
GlifName: uniE_02A_
Width: 851
VWidth: 0
GlyphClass: 2
Flags: HW
LayerCount: 2
Fore
SplineSet
0 210 m 258
 852 210 l 257
 852 0 l 257
 0 0 l 258
 -58 0 -106 48 -106 106 c 256
 -106 164 -58 210 0 210 c 258
EndSplineSet
EndChar

StartChar: uniE02B
Encoding: 57387 57387 337
GlifName: uniE_02B_
Width: 1579
VWidth: 0
GlyphClass: 2
Flags: HW
LayerCount: 2
Fore
SplineSet
1223 1348 m 257
 1433 1348 l 257
 1433 570 l 258
 1433 378 1396 242 1310 152 c 256
 1206 43 1064 0 728 0 c 256
 422 0 82 23 82 418 c 256
 82 516 99 624 120 710 c 257
 318 666 l 257
 300 582 286 497 286 434 c 256
 286 228 439 210 739 210 c 256
 1035 210 1098 226 1160 292 c 256
 1210 346 1223 433 1223 570 c 258
 1223 1348 l 257
EndSplineSet
EndChar

StartChar: uniE02C
Encoding: 57388 57388 338
GlifName: uniE_02C_
Width: 1361
VWidth: 0
GlyphClass: 2
Flags: HW
LayerCount: 2
Fore
SplineSet
1004 1335 m 257
 1214 1335 l 257
 1214 73 l 258
 1214 -321 992 -530 623 -530 c 256
 296 -530 82 -349 82 -53 c 256
 82 93 113 244 176 406 c 257
 366 333 l 257
 313 180 290 69 290 -30 c 256
 290 -212 404 -320 642 -320 c 256
 892 -320 1004 -198 1004 73 c 258
 1004 1335 l 257
EndSplineSet
EndChar

StartChar: uniE02D
Encoding: 57389 57389 339
GlifName: uniE_02D_
Width: 1255
VWidth: 0
GlyphClass: 2
Flags: HW
LayerCount: 2
Fore
SplineSet
828 210 m 256
 919 210 963 244 963 350 c 256
 963 482 886 572 796 572 c 256
 672 572 596 440 575 268 c 257
 651 240 750 210 828 210 c 256
820 0 m 256
 709 0 601 29 519 62 c 256
 471 81 452 88 412 88 c 256
 339 88 292 39 292 -79 c 258
 292 -798 l 257
 82 -798 l 257
 82 -79 l 258
 82 103 192 266 372 292 c 257
 402 490 504 786 804 786 c 256
 1046 786 1174 561 1174 355 c 256
 1174 102 990 0 820 0 c 256
EndSplineSet
EndChar

StartChar: uniE02E
Encoding: 57390 57390 340
GlifName: uniE_02E_
Width: 884
VWidth: 0
GlyphClass: 2
Flags: HW
LayerCount: 2
Fore
SplineSet
443 210 m 256
 549 210 603 258 603 350 c 256
 603 444 541 558 443 658 c 257
 345 558 282 443 282 350 c 256
 282 258 335 210 443 210 c 256
443 0 m 256
 231 0 82 144 82 346 c 256
 82 598 274 794 443 940 c 257
 613 793 803 597 803 346 c 256
 803 144 655 0 443 0 c 256
EndSplineSet
EndChar

StartChar: uniE02F
Encoding: 57391 57391 341
GlifName: uniE_02F_
Width: 937
VWidth: 0
GlyphClass: 2
Flags: HW
LayerCount: 2
Fore
SplineSet
634 20 m 257
 584 8 524 0 462 -0 c 256
 260 0 110 104 110 334 c 256
 110 552 242 800 470 800 c 256
 776 800 856 423 856 167 c 256
 856 -205 625 -430 148 -550 c 257
 82 -351 l 257
 406 -269 589 -130 634 20 c 257
654 226 m 257
 639 426 579 587 467 587 c 256
 381 587 301 478 301 340 c 256
 301 235 355 202 482 202 c 256
 546 202 602 210 654 226 c 257
EndSplineSet
EndChar

StartChar: uniE030
Encoding: 57392 57392 342
GlifName: uniE_030
Width: 0
VWidth: 0
GlyphClass: 2
Flags: H
LayerCount: 2
Fore
SplineSet
-236 1958 m 256
 -236 1896 -216 1841 -186 1797 c 257
 -259 1751 l 257
 -299 1811 -324 1883 -324 1961 c 256
 -324 2165 -160 2330 44 2330 c 257
 44 2246 l 257
 -110 2246 -236 2117 -236 1958 c 256
EndSplineSet
EndChar

StartChar: uniE031
Encoding: 57393 57393 343
GlifName: uniE_031
Width: 0
VWidth: 0
GlyphClass: 2
Flags: H
LayerCount: 2
Fore
SplineSet
193 1850 m 257
 232 1764 l 257
 -193 1570 l 257
 -232 1657 l 257
 193 1850 l 257
EndSplineSet
EndChar

StartChar: uniE032
Encoding: 57394 57394 344
GlifName: uniE_032
Width: 0
VWidth: 0
GlyphClass: 2
Flags: H
LayerCount: 2
Fore
SplineSet
17 1782 m 257
 -51 1812 -124 1867 -124 1955 c 256
 -124 2056 -33 2131 53 2131 c 256
 161 2131 206 2030 206 1964 c 256
 206 1750 -18 1621 -181 1573 c 257
 -210 1663 l 257
 -128 1687 -45 1729 17 1782 c 257
80 1858 m 257
 100 1892 112 1928 112 1964 c 256
 112 2000 88 2036 52 2036 c 256
 16 2036 -30 1995 -30 1956 c 256
 -30 1918 7 1884 80 1858 c 257
EndSplineSet
EndChar

StartChar: uniE033
Encoding: 57395 57395 345
GlifName: uniE_033
Width: 0
VWidth: 0
GlyphClass: 2
Flags: H
LayerCount: 2
Fore
SplineSet
185 1774 m 256
 185 1819 176 1865 165 1910 c 257
 257 1932 l 257
 269 1882 280 1827 280 1771 c 256
 280 1667 212 1608 130 1608 c 256
 80 1608 24 1631 0 1680 c 257
 -26 1630 -80 1608 -130 1608 c 256
 -212 1608 -280 1667 -280 1772 c 256
 -280 1824 -270 1883 -258 1928 c 257
 -166 1906 l 257
 -176 1863 -185 1818 -185 1774 c 256
 -185 1710 -145 1701 -116 1701 c 256
 -86 1701 -42 1713 -42 1791 c 258
 -42 1870 l 257
 42 1870 l 257
 42 1791 l 258
 42 1713 84 1701 116 1701 c 256
 144 1701 185 1710 185 1774 c 256
EndSplineSet
EndChar

StartChar: uniE034
Encoding: 57396 57396 346
GlifName: uniE_034
Width: 0
VWidth: 0
GlyphClass: 2
Flags: H
LayerCount: 2
Fore
SplineSet
0 1940 m 256
 -64 1940 -114 1891 -114 1827 c 256
 -114 1763 -64 1712 0 1712 c 256
 62 1712 114 1765 114 1827 c 256
 114 1889 64 1940 0 1940 c 256
0 2035 m 256
 114 2035 209 1943 209 1827 c 256
 209 1711 116 1618 0 1618 c 256
 -117 1618 -209 1713 -209 1827 c 256
 -209 1941 -117 2035 0 2035 c 256
EndSplineSet
EndChar

StartChar: uniE035
Encoding: 57397 57397 347
GlifName: uniE_035
Width: 0
VWidth: 0
GlyphClass: 2
Flags: H
LayerCount: 2
Fore
SplineSet
-273 1616 m 257
 -244 1674 -184 1748 -91 1748 c 256
 -51 1748 -12 1732 27 1704 c 256
 55 1684 74 1678 90 1678 c 256
 127 1678 160 1709 184 1757 c 257
 270 1718 l 257
 240 1650 184 1583 90 1583 c 256
 49 1583 13 1597 -31 1628 c 256
 -57 1646 -76 1653 -91 1653 c 256
 -129 1653 -168 1616 -188 1575 c 257
 -273 1616 l 257
EndSplineSet
EndChar

StartChar: uniE036
Encoding: 57398 57398 348
GlifName: uniE_036
Width: 0
VWidth: 0
GlyphClass: 2
Flags: H
LayerCount: 2
Fore
SplineSet
-193 1570 m 257
 -232 1656 l 257
 -125 1705 l 257
 -167 1757 -188 1816 -188 1874 c 256
 -188 1982 -110 2063 30 2074 c 258
 106 2079 l 257
 113 1985 l 257
 30 1980 l 258
 -60 1974 -94 1930 -94 1874 c 256
 -94 1834 -74 1785 -36 1746 c 257
 194 1850 l 257
 233 1764 l 257
 -193 1570 l 257
EndSplineSet
EndChar

StartChar: uniE037
Encoding: 57399 57399 349
GlifName: uniE_037
Width: 0
VWidth: 0
GlyphClass: 2
Flags: H
LayerCount: 2
Fore
SplineSet
-258 1910 m 257
 -182 1968 l 257
 0 1735 l 257
 182 1968 l 257
 258 1910 l 257
 0 1578 l 257
 -258 1910 l 257
EndSplineSet
EndChar

StartChar: uniE038
Encoding: 57400 57400 350
GlifName: uniE_038
Width: 1761
VWidth: 0
GlyphClass: 2
Flags: HW
LayerCount: 2
Fore
SplineSet
1629 790 m 257
 1659 693 1680 573 1680 466 c 256
 1680 77 1337 0 881 0 c 256
 425 0 82 77 82 466 c 256
 82 573 102 693 132 790 c 257
 336 732 l 257
 312 654 290 553 290 473 c 256
 290 255 515 210 881 210 c 256
 1247 210 1470 255 1470 473 c 256
 1470 553 1450 654 1426 732 c 257
 1629 790 l 257
EndSplineSet
EndChar

StartChar: uniE039
Encoding: 57401 57401 351
GlifName: uniE_039
Width: 1483
VWidth: 0
GlyphClass: 2
Flags: HW
LayerCount: 2
Fore
SplineSet
1200 227 m 257
 1185 427 1125 588 1013 588 c 256
 927 588 847 479 847 341 c 256
 847 236 901 202 1028 202 c 256
 1092 202 1148 211 1200 227 c 257
1186 24 m 257
 1134 11 1070 0 1008 0 c 256
 806 0 656 105 656 334 c 256
 656 552 788 800 1016 800 c 256
 1320 800 1402 428 1402 138 c 256
 1402 -304 1125 -530 698 -530 c 256
 390 -530 82 -378 82 12 c 256
 82 200 130 342 200 496 c 257
 385 404 l 257
 325 268 292 146 292 12 c 256
 292 -212 444 -320 710 -320 c 256
 1011 -320 1155 -195 1186 24 c 257
EndSplineSet
EndChar

StartChar: uniE03A
Encoding: 57402 57402 352
GlifName: uniE_03A_
Width: 0
VWidth: 0
GlyphClass: 2
Flags: H
LayerCount: 2
Fore
SplineSet
-48 1968 m 257
 48 1968 l 257
 48 1622 l 257
 -48 1622 l 257
 -48 1968 l 257
EndSplineSet
EndChar

StartChar: uniE03B
Encoding: 57403 57403 353
GlifName: uniE_03B_
Width: 1729
VWidth: 0
GlyphClass: 2
Flags: HW
LayerCount: 2
Fore
SplineSet
1437 612 m 257
 1421 814 1360 977 1248 977 c 256
 1162 977 1080 867 1080 729 c 256
 1080 625 1132 588 1259 588 c 256
 1325 588 1383 594 1437 612 c 257
1648 494 m 256
 1648 70 1363 0 844 0 c 256
 341 0 82 75 82 461 c 256
 82 568 105 682 135 779 c 257
 338 722 l 257
 314 644 292 548 292 468 c 256
 292 247 443 210 901 210 c 256
 1295 210 1442 240 1454 422 c 257
 1386 402 1320 392 1244 392 c 256
 1046 392 893 485 893 713 c 256
 893 927 1015 1186 1250 1186 c 256
 1614 1186 1648 675 1648 494 c 256
EndSplineSet
EndChar

StartChar: uniE03C
Encoding: 57404 57404 354
GlifName: uniE_03C_
Width: 1786
VWidth: 0
GlyphClass: 2
Flags: HW
LayerCount: 2
Fore
SplineSet
135 779 m 257
 338 722 l 257
 314 644 292 548 292 468 c 256
 292 246 465 210 780 210 c 256
 1085 210 1249 258 1249 402 c 256
 1249 541 1008 760 778 928 c 257
 778 1130 l 257
 1039 1300 1358 1432 1656 1496 c 257
 1700 1290 l 257
 1478 1242 1226 1149 1015 1028 c 257
 1015 1009 l 257
 1239 835 1459 620 1459 386 c 256
 1459 52 1088 0 756 0 c 256
 371 0 82 75 82 461 c 256
 82 568 105 682 135 779 c 257
EndSplineSet
EndChar

StartChar: uniE03D
Encoding: 57405 57405 355
GlifName: uniE_03D_
Width: 1503
VWidth: 0
GlyphClass: 2
Flags: HW
LayerCount: 2
Fore
SplineSet
1099 589 m 257
 1296 678 l 257
 1358 527 1423 343 1423 109 c 256
 1423 -291 1147 -505 745 -505 c 256
 345 -505 80 -299 80 116 c 256
 80 310 125 499 169 627 c 257
 364 564 l 257
 324 446 286 280 286 130 c 256
 286 -142 426 -294 746 -294 c 256
 1077 -294 1213 -135 1213 102 c 256
 1213 273 1157 447 1099 589 c 257
EndSplineSet
EndChar

StartChar: uniE03E
Encoding: 57406 57406 356
GlifName: uniE_03E_
Width: 1481
VWidth: 0
GlyphClass: 2
Flags: HW
LayerCount: 2
Fore
SplineSet
1352 802 m 257
 1292 616 l 257
 1232 636 1166 645 1106 645 c 256
 910 645 775 528 775 376 c 256
 775 252 858 242 1022 228 c 256
 1228 209 1400 163 1400 -99 c 256
 1400 -400 1070 -530 734 -530 c 256
 312 -530 84 -348 84 30 c 256
 84 172 110 331 144 458 c 257
 338 409 l 257
 314 303 290 162 290 46 c 256
 290 -209 419 -320 740 -320 c 256
 1032 -320 1190 -225 1190 -103 c 256
 1190 -14 1158 4 988 18 c 256
 764 38 566 79 566 354 c 256
 566 632 777 854 1097 854 c 256
 1189 854 1274 834 1352 802 c 257
EndSplineSet
EndChar

StartChar: uniE03F
Encoding: 57407 57407 357
GlifName: uniE_03F_
Width: 1850
VWidth: 0
GlyphClass: 2
Flags: HW
LayerCount: 2
Fore
SplineSet
1850 210 m 257
 1850 0 l 257
 1850 0 l 257
 1630 0 1480 92 1394 252 c 257
 1294 38 1030 0 762 0 c 256
 377 0 82 75 82 461 c 256
 82 568 105 682 135 779 c 257
 338 722 l 257
 314 644 292 548 292 468 c 256
 292 246 469 210 784 210 c 256
 1089 210 1249 258 1249 402 c 256
 1249 541 1008 760 778 928 c 257
 778 1130 l 257
 1039 1300 1358 1432 1656 1496 c 257
 1700 1290 l 257
 1478 1242 1226 1149 1015 1028 c 257
 1015 1009 l 257
 1270 821 1381 637 1464 483 c 256
 1557 311 1629 210 1850 210 c 257
 1850 210 l 257
EndSplineSet
EndChar

StartChar: uniE040
Encoding: 57408 57408 358
GlifName: uniE_040
Width: 1684
VWidth: 0
GlyphClass: 2
Flags: HW
LayerCount: 2
Fore
SplineSet
168 627 m 257
 364 564 l 257
 323 444 286 288 286 136 c 256
 286 -130 412 -294 746 -294 c 256
 1070 -294 1212 -146 1212 110 c 256
 1212 272 1154 448 1098 589 c 257
 1296 678 l 257
 1392 393 l 258
 1434 265 1500 210 1684 210 c 258
 1684 210 l 257
 1684 -0 l 257
 1684 -0 l 258
 1576 0 1489 27 1419 73 c 257
 1411 -294 1131 -505 745 -505 c 256
 345 -505 80 -296 80 111 c 256
 80 305 124 499 168 627 c 257
EndSplineSet
EndChar

StartChar: uniE041
Encoding: 57409 57409 359
GlifName: uniE_041
Width: 567
VWidth: 0
GlyphClass: 2
Flags: HW
LayerCount: 2
Fore
SplineSet
422 823 m 257
 461 704 487 572 487 454 c 256
 487 190 354 0 0 0 c 256
 -58 0 -106 48 -106 106 c 256
 -106 164 -58 210 0 210 c 256
 214 210 281 313 281 458 c 256
 281 556 251 669 222 762 c 257
 422 823 l 257
EndSplineSet
EndChar

StartChar: uniE042
Encoding: 57410 57410 360
GlifName: uniE_042
Width: 805
VWidth: 0
GlyphClass: 2
Flags: HW
LayerCount: 2
Fore
SplineSet
0 210 m 256
 130 210 207 234 249 292 c 256
 287 344 298 424 298 538 c 258
 298 676 l 257
 508 676 l 257
 508 538 l 258
 508 426 518 348 555 296 c 256
 597 236 672 210 804 210 c 258
 806 210 l 257
 806 0 l 257
 804 0 l 257
 621 0 471 58 403 187 c 257
 334 57 182 0 0 0 c 256
 -58 0 -106 48 -106 106 c 256
 -106 164 -58 210 0 210 c 256
EndSplineSet
EndChar

StartChar: uniE043
Encoding: 57411 57411 361
GlifName: uniE_043
Width: 1394
VWidth: 0
GlyphClass: 2
Flags: HW
LayerCount: 2
Fore
SplineSet
1394 210 m 257
 1394 0 l 257
 1246 0 l 257
 1295 -50 1326 -121 1326 -186 c 256
 1326 -457 986 -588 712 -588 c 256
 281 -588 82 -366 82 4 c 256
 82 184 126 403 184 581 c 257
 382 516 l 257
 332 358 288 154 288 -2 c 256
 288 -249 405 -378 713 -378 c 256
 989 -378 1121 -270 1121 -166 c 256
 1121 -38 938 0 708 -0 c 257
 708 210 l 257
 1394 210 l 257
EndSplineSet
EndChar

StartChar: uniE044
Encoding: 57412 57412 362
GlifName: uniE_044
Width: 604
VWidth: 0
GlyphClass: 2
Flags: HW
LayerCount: 2
Fore
SplineSet
147 1335 m 257
 357 1335 l 257
 357 436 l 258
 357 354 368 299 399 264 c 256
 435 222 492 210 604 210 c 257
 605 210 l 257
 605 0 l 257
 604 0 l 257
 445 0 335 40 256 120 c 256
 184 192 147 297 147 436 c 258
 147 1335 l 257
EndSplineSet
EndChar

StartChar: uniE045
Encoding: 57413 57413 363
GlifName: uniE_045
Width: 1453
VWidth: 0
GlyphClass: 2
Flags: HW
LayerCount: 2
Fore
SplineSet
1274 -436 m 257
 1349 -632 l 257
 1165 -707 981 -748 767 -748 c 256
 401 -748 82 -591 82 -213 c 256
 82 218 525 440 1004 576 c 257
 608 712 l 258
 570 724 537 730 508 730 c 256
 394 730 329 650 309 470 c 257
 121 500 l 257
 151 740 275 940 511 940 c 256
 567 940 626 930 692 904 c 258
 1298 682 l 257
 1298 458 l 257
 1236 442 1144 416 1086 398 c 257
 1160 294 1281 210 1453 210 c 258
 1454 210 l 257
 1454 0 l 257
 1453 0 l 258
 1183 0 1000 144 890 332 c 257
 533 201 292 27 292 -213 c 256
 292 -429 479 -531 755 -531 c 256
 947 -531 1118 -494 1274 -436 c 257
EndSplineSet
EndChar

StartChar: uniE046
Encoding: 57414 57414 364
GlifName: uniE_046
Width: 1359
VWidth: 0
GlyphClass: 2
Flags: HW
LayerCount: 2
Fore
SplineSet
104 492 m 257
 136 682 222 934 468 934 c 256
 531 934 603 917 684 880 c 258
 1268 626 l 257
 1268 422 l 257
 858 149 523 0 0 0 c 256
 -58 0 -106 48 -106 106 c 256
 -106 164 -58 210 0 210 c 256
 422 210 713 305 1008 514 c 257
 592 691 l 258
 546 711 508 722 476 722 c 256
 378 722 318 630 290 460 c 257
 104 492 l 257
EndSplineSet
EndChar

StartChar: uniE047
Encoding: 57415 57415 365
GlifName: uniE_047
Width: 1382
VWidth: 0
GlyphClass: 2
Flags: HW
LayerCount: 2
Fore
SplineSet
104 492 m 257
 136 682 222 934 468 934 c 256
 531 934 603 917 684 880 c 258
 1268 626 l 257
 1268 422 l 257
 1209 382 1152 346 1096 312 c 257
 1170 254 1249 210 1381 210 c 258
 1382 210 l 257
 1382 0 l 257
 1381 0 l 258
 1175 0 1033 90 924 218 c 257
 647 74 371 0 0 0 c 256
 -58 0 -106 48 -106 106 c 256
 -106 164 -58 210 0 210 c 256
 422 210 713 305 1008 514 c 257
 592 691 l 258
 546 711 507 721 475 721 c 256
 377 721 318 630 290 460 c 257
 104 492 l 257
EndSplineSet
EndChar

StartChar: uniE048
Encoding: 57416 57416 366
GlifName: uniE_048
Width: 1239
VWidth: 0
GlyphClass: 2
Flags: HW
LayerCount: 2
Fore
SplineSet
1239 210 m 257
 1239 0 l 257
 1238 0 l 257
 1076 0 944 35 836 175 c 257
 758 55 598 0 436 0 c 256
 296 0 154 34 52 110 c 257
 129 287 l 257
 219 232 343 210 451 210 c 256
 609 210 705 276 705 370 c 256
 705 400 697 426 674 480 c 258
 486 919 l 257
 680 1003 l 257
 904 476 l 258
 1009 228 1054 210 1238 210 c 257
 1239 210 l 257
EndSplineSet
EndChar

StartChar: uniE049
Encoding: 57417 57417 367
GlifName: uniE_049
Width: 974
VWidth: 0
GlyphClass: 2
Flags: HW
LayerCount: 2
Fore
SplineSet
443 610 m 257
 638 688 l 257
 728 399 l 258
 778 244 828 210 974 210 c 257
 975 210 l 257
 975 0 l 257
 974 0 l 258
 882 0 814 18 748 56 c 257
 720 -221 465 -432 135 -552 c 257
 63 -354 l 257
 372 -241 550 -80 550 162 c 256
 550 271 519 409 443 610 c 257
EndSplineSet
EndChar

StartChar: uniE04A
Encoding: 57418 57418 368
GlifName: uniE_04A_
Width: 2715
VWidth: 0
GlyphClass: 2
Flags: HW
LayerCount: 2
Fore
SplineSet
2362 767 m 257
 2397 550 l 258
 2419 420 2436 326 2493 272 c 256
 2537 230 2603 210 2715 210 c 258
 2716 210 l 257
 2716 0 l 257
 2715 0 l 257
 2529 0 2401 56 2325 166 c 257
 2271 62 2174 0 2051 0 c 256
 1953 0 1841 43 1787 142 c 257
 1746 50 1665 0 1560 0 c 256
 1490 0 1424 20 1370 62 c 257
 1358 -294 1105 -494 729 -494 c 256
 339 -494 82 -298 82 106 c 256
 82 300 126 499 170 627 c 257
 362 566 l 257
 326 445 286 284 286 132 c 256
 286 -134 406 -283 730 -283 c 256
 1044 -283 1170 -150 1170 106 c 256
 1170 270 1123 421 1048 607 c 257
 1248 699 l 257
 1352 382 l 258
 1389 270 1434 210 1538 210 c 256
 1638 210 1690 268 1698 424 c 258
 1712 649 l 257
 1892 644 l 257
 1883 461 l 258
 1872 291 1934 210 2044 210 c 256
 2154 210 2194 288 2194 407 c 256
 2194 469 2189 543 2175 618 c 258
 2154 732 l 257
 2362 767 l 257
EndSplineSet
EndChar

StartChar: uniE04B
Encoding: 57419 57419 369
GlifName: uniE_04B_
Width: 1614
VWidth: 0
GlyphClass: 2
Flags: HW
LayerCount: 2
Fore
SplineSet
1486 766 m 257
 1516 628 1534 534 1534 385 c 256
 1534 285 1507 198 1460 132 c 256
 1400 46 1305 0 1185 0 c 256
 1071 0 980 55 924 131 c 257
 867 54 778 0 664 0 c 256
 537 0 442 66 386 155 c 257
 307 53 182 0 0 0 c 256
 -58 0 -106 48 -106 106 c 256
 -106 164 -58 210 0 210 c 256
 128 210 202 228 246 282 c 256
 289 336 298 426 298 568 c 258
 298 675 l 257
 508 675 l 257
 508 482 l 258
 508 382 517 306 552 260 c 256
 577 228 615 210 672 210 c 256
 730 210 768 229 792 263 c 256
 825 310 832 386 832 482 c 258
 832 664 l 257
 1016 664 l 257
 1016 482 l 258
 1016 385 1025 308 1058 262 c 256
 1082 228 1117 210 1173 210 c 256
 1241 210 1280 232 1302 276 c 256
 1316 306 1324 345 1324 396 c 256
 1324 508 1307 609 1282 723 c 257
 1486 766 l 257
EndSplineSet
EndChar

StartChar: uniE04C
Encoding: 57420 57420 370
GlifName: uniE_04C_
Width: 1822
VWidth: 0
GlyphClass: 2
Flags: HW
LayerCount: 2
Fore
SplineSet
1486 766 m 257
 1518 526 l 258
 1534 416 1554 334 1602 282 c 256
 1646 234 1713 210 1821 210 c 258
 1822 210 l 257
 1822 0 l 257
 1821 0 l 257
 1665 0 1539 44 1454 140 c 257
 1398 56 1304 0 1185 0 c 256
 1071 0 980 56 924 132 c 257
 867 54 778 0 664 0 c 256
 537 0 442 66 386 155 c 257
 307 53 182 0 0 0 c 256
 -58 0 -106 48 -106 106 c 256
 -106 164 -58 210 0 210 c 256
 128 210 201 229 245 282 c 256
 289 336 298 426 298 568 c 258
 298 675 l 257
 508 675 l 257
 508 482 l 258
 508 380 517 305 552 259 c 256
 578 227 616 210 672 210 c 256
 729 210 766 228 791 262 c 256
 825 309 832 386 832 482 c 258
 832 664 l 257
 1016 664 l 257
 1016 482 l 258
 1016 386 1024 310 1056 264 c 256
 1080 229 1115 210 1172 210 c 256
 1236 210 1274 230 1298 270 c 256
 1315 298 1324 337 1324 390 c 256
 1324 484 1305 592 1278 734 c 257
 1486 766 l 257
EndSplineSet
EndChar

StartChar: uniE04D
Encoding: 57421 57421 371
GlifName: uniE_04D_
Width: 2528
VWidth: 0
GlyphClass: 2
Flags: HW
LayerCount: 2
Fore
SplineSet
1350 356 m 257
 1531 660 1774 807 1972 807 c 256
 2169 807 2358 673 2358 445 c 256
 2358 379 2341 322 2313 272 c 257
 2357 230 2424 210 2528 210 c 258
 2529 210 l 257
 2529 0 l 257
 2528 0 l 258
 2366 0 2241 40 2153 122 c 257
 2025 37 1848 0 1698 0 c 256
 1586 0 1472 17 1374 54 c 257
 1345 -304 1113 -500 734 -500 c 256
 334 -500 82 -304 82 111 c 256
 82 305 126 499 170 627 c 257
 364 564 l 257
 324 446 286 274 286 124 c 256
 286 -148 406 -288 735 -288 c 256
 1061 -288 1172 -133 1172 104 c 256
 1172 275 1110 458 1052 602 c 257
 1248 692 l 257
 1292 582 1326 468 1350 356 c 257
1510 236 m 257
 1568 219 1634 210 1698 210 c 256
 1992 210 2148 317 2148 434 c 256
 2148 530 2074 597 1961 597 c 256
 1843 597 1670 516 1510 236 c 257
EndSplineSet
EndChar

StartChar: uniE04E
Encoding: 57422 57422 372
GlifName: uniE_04E_
Width: 1669
VWidth: 0
GlyphClass: 2
Flags: HW
LayerCount: 2
Fore
SplineSet
0 210 m 256
 121 210 194 232 238 280 c 256
 284 330 298 404 298 508 c 258
 298 675 l 257
 508 675 l 257
 508 508 l 258
 508 408 523 351 549 319 c 257
 741 684 1004 828 1215 828 c 256
 1399 828 1588 704 1588 480 c 256
 1588 151 1158 0 871 0 c 256
 663 0 489 26 390 150 c 257
 304 42 166 0 0 0 c 256
 -58 0 -106 48 -106 106 c 256
 -106 164 -58 210 0 210 c 256
718 221 m 257
 760 213 811 210 871 210 c 256
 1174 210 1378 348 1378 470 c 256
 1378 560 1306 618 1204 618 c 256
 1084 618 891 531 718 221 c 257
EndSplineSet
EndChar

StartChar: uniE04F
Encoding: 57423 57423 373
GlifName: uniE_04F_
Width: 1717
VWidth: 0
GlyphClass: 2
Flags: HW
LayerCount: 2
Fore
SplineSet
718 221 m 257
 760 213 811 210 871 210 c 256
 1174 210 1378 348 1378 470 c 256
 1378 560 1306 618 1204 618 c 256
 1084 618 891 531 718 221 c 257
508 675 m 257
 508 506 l 258
 508 404 523 358 549 319 c 257
 741 684 1004 828 1215 828 c 256
 1399 828 1588 704 1588 480 c 256
 1588 398 1560 327 1512 267 c 257
 1552 228 1614 210 1716 210 c 257
 1717 210 l 257
 1717 0 l 257
 1716 0 l 257
 1560 0 1434 37 1348 124 c 257
 1205 40 1023 0 871 0 c 256
 663 0 489 26 390 150 c 257
 304 44 169 0 0 0 c 256
 -58 0 -106 48 -106 106 c 256
 -106 164 -58 210 0 210 c 256
 116 210 192 232 238 282 c 256
 282 330 298 406 298 516 c 258
 298 675 l 257
 508 675 l 257
EndSplineSet
EndChar

StartChar: uniE050
Encoding: 57424 57424 374
GlifName: uniE_050
Width: 1602
VWidth: 0
GlyphClass: 2
Flags: HW
LayerCount: 2
Fore
SplineSet
618 210 m 257
 1200 214 1263 339 1263 464 c 256
 1263 554 1196 618 1090 618 c 256
 975 618 748 518 618 230 c 257
 618 210 l 257
384 210 m 257
 384 1335 l 257
 594 1335 l 257
 594 508 l 257
 754 728 944 828 1114 828 c 256
 1284 828 1473 704 1473 480 c 256
 1473 396 1454 322 1408 258 c 257
 1444 224 1513 210 1601 210 c 257
 1602 210 l 257
 1602 0 l 257
 1601 0 l 257
 1449 0 1332 31 1242 115 c 257
 1088 37 849 0 489 0 c 258
 71 0 l 257
 71 210 l 257
 384 210 l 257
EndSplineSet
EndChar

StartChar: uniE051
Encoding: 57425 57425 375
GlifName: uniE_051
Width: 1336
VWidth: 0
GlyphClass: 2
Flags: HW
LayerCount: 2
Fore
SplineSet
400 210 m 257
 982 214 1045 339 1045 464 c 256
 1045 554 978 618 872 618 c 256
 756 618 527 516 400 230 c 257
 400 210 l 257
0 210 m 258
 166 210 l 257
 166 1335 l 257
 376 1335 l 257
 376 508 l 257
 537 732 731 828 893 828 c 256
 1066 828 1256 704 1256 480 c 256
 1256 164 998 0 271 0 c 258
 0 0 l 258
 -58 0 -106 48 -106 106 c 256
 -106 164 -58 210 0 210 c 258
EndSplineSet
EndChar

StartChar: uniE052
Encoding: 57426 57426 376
GlifName: uniE_052
Width: 1384
VWidth: 0
GlyphClass: 2
Flags: HW
LayerCount: 2
Fore
SplineSet
400 210 m 257
 976 210 1045 339 1045 464 c 256
 1045 554 978 618 872 618 c 256
 756 618 527 516 400 230 c 257
 400 210 l 257
0 210 m 258
 166 210 l 257
 166 1335 l 257
 376 1335 l 257
 376 508 l 257
 536 732 730 828 882 828 c 256
 1066 828 1256 704 1256 480 c 256
 1256 396 1236 322 1190 258 c 257
 1228 224 1295 210 1383 210 c 257
 1384 210 l 257
 1384 0 l 257
 1383 0 l 257
 1231 0 1113 31 1023 115 c 257
 869 37 631 0 271 0 c 258
 0 0 l 258
 -58 0 -106 48 -106 106 c 256
 -106 164 -58 210 0 210 c 258
EndSplineSet
EndChar

StartChar: uniE053
Encoding: 57427 57427 377
GlifName: uniE_053
Width: 1214
VWidth: 0
GlyphClass: 2
Flags: HW
LayerCount: 2
Fore
SplineSet
1073 542 m 256
 1073 414 984 316 898 252 c 257
 986 226 1100 210 1214 210 c 258
 1215 210 l 257
 1215 0 l 257
 1214 0 l 258
 1005 0 815 44 683 114 c 257
 433 14 292 -126 292 -296 c 256
 292 -490 518 -568 756 -568 c 256
 888 -568 1015 -544 1113 -506 c 257
 1184 -698 l 257
 1060 -748 906 -777 754 -777 c 256
 409 -777 82 -642 82 -300 c 256
 82 -42 265 133 499 245 c 257
 403 319 268 430 160 526 c 257
 166 686 l 257
 288 796 473 866 653 866 c 256
 853 866 1073 752 1073 542 c 256
876 529 m 256
 876 591 795 661 650 661 c 256
 558 661 456 626 392 588 c 257
 392 570 l 257
 489 484 586 399 688 325 c 257
 798 381 876 457 876 529 c 256
EndSplineSet
EndChar

StartChar: uniE054
Encoding: 57428 57428 378
GlifName: uniE_054
Width: 1121
VWidth: 0
GlyphClass: 2
Flags: HW
LayerCount: 2
Fore
SplineSet
334 472 m 256
 334 344 443 283 586 283 c 256
 610 283 637 284 660 288 c 258
 985 351 l 257
 1024 144 l 257
 494 43 l 258
 344 15 170 0 0 0 c 256
 -58 0 -104 49 -104 106 c 256
 -104 163 -58 210 0 210 c 256
 78 210 166 214 238 222 c 257
 170 277 124 355 124 465 c 256
 124 733 325 936 568 936 c 256
 758 936 877 821 956 718 c 257
 804 608 l 257
 754 674 676 726 572 726 c 256
 442 726 334 622 334 472 c 256
EndSplineSet
EndChar

StartChar: uniE055
Encoding: 57429 57429 379
GlifName: uniE_055
Width: 1101
VWidth: 0
GlyphClass: 2
Flags: HW
LayerCount: 2
Fore
SplineSet
102 686 m 257
 231 802 411 866 593 866 c 256
 785 866 1004 754 1004 540 c 256
 1004 416 919 314 833 252 c 257
 902 230 1010 210 1102 210 c 258
 1102 210 l 257
 1102 0 l 257
 1102 0 l 258
 914 0 753 49 630 111 c 257
 457 47 215 0 0 0 c 256
 -58 0 -106 48 -106 106 c 256
 -106 164 -58 210 0 210 c 256
 134 210 330 228 426 248 c 257
 330 322 201 433 96 526 c 257
 102 686 l 257
328 588 m 257
 327 570 l 257
 418 488 519 398 623 324 c 257
 731 375 812 461 812 527 c 256
 812 599 719 661 590 661 c 256
 493 661 396 629 328 588 c 257
EndSplineSet
EndChar

StartChar: uniE056
Encoding: 57430 57430 380
GlifName: uniE_056
Width: 1730
VWidth: 0
GlyphClass: 2
Flags: HW
LayerCount: 2
Fore
SplineSet
1223 1348 m 257
 1433 1348 l 257
 1433 570 l 258
 1433 431 1446 334 1500 278 c 256
 1544 231 1615 210 1729 210 c 258
 1730 210 l 257
 1730 0 l 257
 1729 0 l 257
 1598 0 1483 34 1403 106 c 256
 1373 130 1348 158 1328 192 c 257
 1304 156 1273 125 1237 101 c 256
 1131 23 984 0 734 0 c 256
 422 0 82 23 82 418 c 256
 82 516 99 624 120 710 c 257
 318 666 l 257
 300 582 286 497 286 434 c 256
 286 228 440 210 744 210 c 256
 981 210 1094 221 1160 292 c 256
 1210 345 1223 432 1223 570 c 258
 1223 1348 l 257
EndSplineSet
EndChar

StartChar: uniE057
Encoding: 57431 57431 381
GlifName: uniE_057
Width: 1030
VWidth: 0
GlyphClass: 2
Flags: HW
LayerCount: 2
Fore
SplineSet
0 210 m 258
 154 210 l 258
 402 210 494 279 494 394 c 256
 494 542 253 760 23 928 c 257
 23 1130 l 257
 284 1300 603 1432 901 1496 c 257
 944 1290 l 257
 722 1242 471 1149 260 1028 c 257
 260 1009 l 257
 484 835 704 620 704 379 c 256
 704 82 388 0 157 0 c 258
 0 0 l 258
 -58 0 -106 48 -106 106 c 257
 -106 164 -58 210 0 210 c 258
EndSplineSet
EndChar

StartChar: uniE058
Encoding: 57432 57432 382
GlifName: uniE_058
Width: 1097
VWidth: 0
GlyphClass: 2
Flags: HW
LayerCount: 2
Fore
SplineSet
0 210 m 258
 154 210 l 258
 402 210 494 279 494 393 c 256
 494 541 253 761 23 928 c 257
 23 1130 l 257
 285 1300 604 1432 902 1496 c 257
 944 1290 l 257
 722 1242 471 1149 260 1028 c 257
 260 1009 l 257
 515 821 628 638 711 484 c 256
 803 312 875 210 1096 210 c 258
 1098 210 l 257
 1098 0 l 257
 1096 0 l 258
 876 0 728 86 640 246 c 257
 575 76 403 0 157 0 c 258
 0 0 l 258
 -58 0 -106 48 -106 106 c 257
 -106 164 -58 210 0 210 c 258
EndSplineSet
EndChar

StartChar: uniE059
Encoding: 57433 57433 383
GlifName: uniE_059
Width: 1510
VWidth: 0
GlyphClass: 2
Flags: HW
LayerCount: 2
Fore
SplineSet
1511 210 m 257
 1511 0 l 257
 1510 0 l 257
 1388 0 1276 24 1212 104 c 257
 1212 36 l 258
 1212 -314 980 -530 623 -530 c 256
 296 -530 82 -349 82 -53 c 256
 82 93 113 244 176 406 c 257
 366 333 l 257
 313 180 290 69 290 -30 c 256
 290 -212 404 -320 642 -320 c 256
 892 -320 1004 -198 1004 73 c 258
 1004 1335 l 257
 1214 1335 l 257
 1214 568 l 258
 1214 421 1240 330 1276 284 c 256
 1311 240 1372 210 1510 210 c 257
 1511 210 l 257
EndSplineSet
EndChar

StartChar: uniE05A
Encoding: 57434 57434 384
GlifName: uniE_05A_
Width: 614
VWidth: 0
GlyphClass: 2
Flags: HW
LayerCount: 2
Fore
SplineSet
468 447 m 258
 468 307 430 198 358 124 c 256
 279 42 158 0 0 0 c 256
 -58 0 -106 48 -106 106 c 256
 -106 164 -58 210 0 210 c 256
 110 210 176 226 214 268 c 256
 246 304 258 361 258 447 c 258
 258 1335 l 257
 468 1335 l 257
 468 447 l 258
EndSplineSet
EndChar

StartChar: uniE05B
Encoding: 57435 57435 385
GlifName: uniE_05B_
Width: 726
VWidth: 0
GlyphClass: 2
Flags: HW
LayerCount: 2
Fore
SplineSet
0 210 m 256
 113 210 178 226 214 272 c 256
 250 318 258 392 258 506 c 258
 258 1335 l 257
 468 1335 l 257
 468 508 l 258
 468 394 476 320 512 274 c 256
 548 228 613 210 726 210 c 258
 727 210 l 257
 727 0 l 257
 726 0 l 257
 552 0 419 55 363 179 c 257
 309 57 173 0 0 0 c 256
 -58 0 -106 48 -106 106 c 256
 -106 164 -58 210 0 210 c 256
EndSplineSet
EndChar

StartChar: uniE05C
Encoding: 57436 57436 386
GlifName: uniE_05C_
Width: 1395
VWidth: 0
GlyphClass: 2
Flags: HW
LayerCount: 2
Fore
SplineSet
575 268 m 257
 657 244 745 210 828 210 c 256
 919 210 963 244 963 350 c 256
 963 482 886 572 796 572 c 256
 672 572 596 440 575 268 c 257
1395 0 m 257
 1394 0 l 258
 1270 0 1173 36 1088 116 c 257
 1022 36 920 0 820 0 c 256
 709 0 601 29 519 62 c 256
 471 81 452 88 412 88 c 256
 339 88 292 39 292 -79 c 258
 292 -798 l 257
 82 -798 l 257
 82 -79 l 258
 82 127 192 266 372 292 c 257
 402 490 504 786 804 786 c 256
 1026 786 1149 597 1172 407 c 256
 1190 258 1251 210 1394 210 c 258
 1395 210 l 257
 1395 0 l 257
EndSplineSet
EndChar

StartChar: uniE05D
Encoding: 57437 57437 387
GlifName: uniE_05D_
Width: 1097
VWidth: 0
GlyphClass: 2
Flags: HW
LayerCount: 2
Fore
SplineSet
0 210 m 256
 104 210 156 263 206 363 c 256
 223 396 240 432 256 472 c 256
 324 634 423 797 645 797 c 256
 883 797 1016 557 1016 363 c 256
 1016 170 870 0 658 0 c 256
 508 0 404 72 326 168 c 257
 252 62 142 0 0 0 c 256
 -58 0 -106 48 -106 106 c 256
 -106 164 -58 210 0 210 c 256
418 347 m 257
 476 277 566 210 658 210 c 256
 734 210 806 269 806 363 c 256
 806 487 725 590 635 590 c 256
 554 590 487 534 437 396 c 257
 418 347 l 257
EndSplineSet
EndChar

StartChar: uniE05E
Encoding: 57438 57438 388
GlifName: uniE_05E_
Width: 1300
VWidth: 0
GlyphClass: 2
Flags: HW
LayerCount: 2
Fore
SplineSet
0 210 m 256
 104 210 156 263 206 363 c 256
 223 396 240 432 256 472 c 256
 324 634 423 797 645 797 c 256
 863 797 994 594 1014 410 c 256
 1020 352 1042 312 1065 284 c 256
 1099 240 1161 210 1299 210 c 258
 1300 210 l 257
 1300 0 l 257
 1299 0 l 258
 1145 0 1020 45 944 145 c 257
 884 59 780 0 660 0 c 256
 510 0 404 72 326 168 c 257
 252 62 142 0 0 0 c 256
 -58 0 -106 48 -106 106 c 256
 -106 164 -58 210 0 210 c 256
418 347 m 257
 476 277 566 210 658 210 c 256
 734 210 806 269 806 363 c 256
 806 487 725 590 635 590 c 256
 554 590 487 534 437 396 c 258
 418 347 l 257
EndSplineSet
EndChar

StartChar: uniE05F
Encoding: 57439 57439 389
GlifName: uniE_05F_
Width: 1090
VWidth: 0
GlyphClass: 2
Flags: HW
LayerCount: 2
Fore
SplineSet
608 722 m 257
 393 700 279 596 279 498 c 256
 279 416 356 366 490 366 c 256
 534 366 584 372 628 386 c 257
 608 722 l 257
1091 0 m 257
 1090 0 l 257
 869 0 767 62 687 196 c 257
 633 173 560 164 490 164 c 256
 304 164 82 252 82 484 c 256
 82 754 348 883 594 929 c 257
 586 1074 l 257
 796 1087 l 257
 832 476 l 258
 842 295 888 210 1090 210 c 257
 1091 210 l 257
 1091 0 l 257
EndSplineSet
EndChar

StartChar: uniE060
Encoding: 57440 57440 390
GlifName: uniE_060
Width: 1357
VWidth: 0
GlyphClass: 2
Flags: HW
LayerCount: 2
Fore
SplineSet
0 210 m 256
 87 210 175 218 245 232 c 257
 169 300 110 390 110 500 c 256
 110 628 187 750 290 820 c 257
 128 878 l 257
 199 1073 l 257
 707 882 l 258
 1037 758 1276 620 1276 350 c 256
 1276 159 1141 0 897 0 c 256
 777 0 646 21 496 73 c 257
 356 23 178 0 0 0 c 256
 -58 0 -106 48 -106 106 c 256
 -106 164 -58 210 0 210 c 256
480 292 m 257
 584 340 649 413 649 525 c 256
 649 627 609 713 505 713 c 256
 411 713 314 633 314 508 c 256
 314 414 382 343 480 292 c 257
693 236 m 257
 768 218 844 210 900 210 c 256
 1014 210 1070 261 1070 352 c 256
 1070 456 970 547 818 610 c 257
 853 463 794 318 693 236 c 257
EndSplineSet
EndChar

StartChar: uniE061
Encoding: 57441 57441 391
GlifName: uniE_061
Width: 1082
VWidth: 0
GlyphClass: 2
Flags: HW
LayerCount: 2
Fore
SplineSet
343 240 m 257
 563 280 684 366 684 502 c 256
 684 600 642 646 566 646 c 256
 452 646 345 510 343 240 c 257
1083 0 m 257
 1082 0 l 258
 910 0 819 -74 819 -232 c 258
 819 -426 l 257
 660 -528 l 257
 400 -486 215 -274 156 4 c 257
 104 2 56 0 0 0 c 257
 -58 0 -106 48 -106 106 c 256
 -106 164 -58 210 0 210 c 257
 52 210 95 212 141 214 c 257
 153 552 272 856 566 856 c 256
 748 856 861 724 861 522 c 256
 861 262 618 70 356 28 c 257
 390 -140 507 -278 623 -308 c 257
 636 -300 l 257
 636 -190 l 258
 636 48 848 210 1082 210 c 258
 1083 210 l 257
 1083 0 l 257
EndSplineSet
EndChar

StartChar: uniE062
Encoding: 57442 57442 392
GlifName: uniE_062
Width: 950
VWidth: 0
GlyphClass: 2
Flags: HW
LayerCount: 2
Fore
SplineSet
655 208 m 257
 643 408 585 588 467 588 c 256
 381 588 301 479 301 341 c 256
 301 236 355 202 482 202 c 256
 540 202 601 204 655 208 c 257
836 0 m 257
 776 -272 548 -449 148 -550 c 257
 82 -351 l 257
 396 -272 580 -138 632 4 c 257
 579 2 520 0 462 0 c 256
 260 0 110 104 110 334 c 256
 110 552 242 800 470 800 c 256
 761 800 848 459 856 210 c 257
 950 210 l 257
 950 0 l 257
 836 0 l 257
EndSplineSet
EndChar

StartChar: uniE063
Encoding: 57443 57443 393
GlifName: uniE_063
Width: 1120
VWidth: 0
GlyphClass: 2
Flags: HW
LayerCount: 2
Fore
SplineSet
706 558 m 257
 617 444 497 330 396 249 c 257
 396 232 l 257
 440 216 499 206 553 206 c 256
 706 206 793 238 793 296 c 256
 793 340 758 456 706 558 c 257
696 862 m 257
 764 998 808 1145 808 1335 c 257
 1018 1335 l 257
 1018 1061 930 882 820 702 c 257
 901 567 980 416 980 292 c 256
 980 36 708 0 566 0 c 256
 408 0 265 43 157 107 c 257
 157 300 l 257
 299 404 463 545 584 705 c 257
 454 893 253 1048 82 1164 c 257
 202 1337 l 257
 382 1214 564 1040 696 862 c 257
EndSplineSet
EndChar

StartChar: uniE064
Encoding: 57444 57444 394
GlifName: uniE_064
Width: 1432
VWidth: 0
GlyphClass: 2
Flags: HW
LayerCount: 2
Fore
SplineSet
546 446 m 257
 336 434 l 257
 336 740 278 990 152 1282 c 257
 346 1364 l 257
 484 1043 546 765 546 446 c 257
1433 0 m 257
 1431 0 l 257
 1231 0 1077 72 1003 229 c 257
 847 43 557 0 105 0 c 257
 105 210 l 257
 792 210 924 295 924 567 c 258
 924 1335 l 257
 1134 1335 l 257
 1134 570 l 258
 1134 435 1148 344 1187 290 c 256
 1227 236 1298 210 1431 210 c 258
 1433 210 l 257
 1433 0 l 257
EndSplineSet
EndChar

StartChar: uniE065
Encoding: 57445 57445 395
GlifName: uniE_065
Width: 1862
VWidth: 0
GlyphClass: 2
Flags: HW
LayerCount: 2
Fore
SplineSet
1688 650 m 257
 1658 544 1633 441 1633 368 c 256
 1633 262 1678 210 1862 210 c 258
 1863 210 l 257
 1863 0 l 257
 1862 0 l 257
 1628 0 1512 85 1457 235 c 257
 1313 61 1054 0 754 0 c 256
 295 0 82 185 82 500 c 256
 82 598 104 709 151 830 c 257
 343 757 l 257
 311 661 292 578 292 506 c 256
 292 311 429 210 792 210 c 256
 1238 210 1425 352 1490 700 c 257
 1688 650 l 257
EndSplineSet
EndChar

StartChar: uniE066
Encoding: 57446 57446 396
GlifName: uniE_066
Width: 920
VWidth: 0
GlyphClass: 2
Flags: HW
LayerCount: 2
Fore
SplineSet
646 422 m 257
 578 402 510 392 434 392 c 256
 236 392 84 485 84 713 c 256
 84 927 207 1186 442 1186 c 256
 806 1186 839 675 839 494 c 256
 839 76 646 0 0 0 c 256
 -58 0 -106 48 -106 106 c 256
 -106 164 -58 210 0 210 c 256
 588 210 646 231 646 422 c 257
628 612 m 257
 612 814 550 977 438 977 c 256
 352 977 271 867 271 729 c 256
 271 625 323 588 450 588 c 256
 515 588 574 595 628 612 c 257
EndSplineSet
EndChar

StartChar: uniE067
Encoding: 57447 57447 397
GlifName: uniE_067
Width: 1868
VWidth: 0
GlyphClass: 2
Flags: HW
LayerCount: 2
Fore
SplineSet
1378 74 m 257
 1225 24 1060 0 852 0 c 256
 450 0 78 48 78 456 c 256
 78 594 117 707 153 806 c 257
 352 740 l 257
 320 644 292 552 292 472 c 256
 292 270 413 210 852 210 c 256
 964 210 1065 216 1153 234 c 257
 1062 306 1006 407 1006 546 c 256
 1006 779 1168 934 1384 934 c 256
 1596 934 1762 780 1762 548 c 256
 1762 410 1707 305 1612 233 c 257
 1683 217 1768 210 1868 210 c 257
 1868 210 l 257
 1868 0 l 257
 1868 0 l 257
 1696 0 1514 26 1378 74 c 257
1381 290 m 257
 1490 340 1552 420 1552 538 c 256
 1552 654 1489 724 1384 724 c 256
 1276 724 1216 656 1216 538 c 256
 1216 422 1280 340 1381 290 c 257
EndSplineSet
EndChar

StartChar: uniE068
Encoding: 57448 57448 398
GlifName: uniE_068
Width: 970
VWidth: 0
GlyphClass: 2
Flags: HW
LayerCount: 2
Fore
SplineSet
0 210 m 256
 89 210 178 215 257 232 c 257
 165 304 107 406 107 546 c 256
 107 779 270 934 486 934 c 256
 698 934 863 780 863 548 c 256
 863 410 805 304 713 232 c 257
 783 216 888 210 970 210 c 257
 970 210 l 257
 970 0 l 257
 970 0 l 257
 799 0 616 28 482 74 c 257
 339 23 180 0 0 0 c 256
 -58 0 -106 48 -106 106 c 256
 -106 164 -58 210 0 210 c 256
484 289 m 257
 590 339 653 420 653 538 c 256
 653 654 591 724 486 724 c 256
 378 724 317 656 317 538 c 256
 317 422 382 339 484 289 c 257
EndSplineSet
EndChar

StartChar: uniE069
Encoding: 57449 57449 399
GlifName: uniE_069
Width: 1485
VWidth: 0
GlyphClass: 2
Flags: HW
LayerCount: 2
Fore
SplineSet
1185 6 m 257
 1129 3 1066 0 1008 0 c 256
 806 0 656 105 656 334 c 256
 656 552 788 800 1016 800 c 256
 1298 800 1387 478 1400 210 c 257
 1486 210 l 257
 1486 0 l 257
 1391 0 l 257
 1336 -350 1074 -530 702 -530 c 256
 380 -530 82 -372 82 18 c 256
 82 196 130 342 200 496 c 257
 385 404 l 257
 325 268 292 142 292 18 c 256
 292 -206 433 -320 711 -320 c 256
 995 -320 1147 -202 1185 6 c 257
1200 208 m 257
 1190 416 1129 588 1013 588 c 256
 927 588 847 479 847 341 c 256
 847 236 901 202 1028 202 c 256
 1086 202 1146 204 1200 208 c 257
EndSplineSet
EndChar

StartChar: uniFD3E
Encoding: 64830 64830 428
GlifName: uniF_D_3E_
Width: 770
VWidth: 0
GlyphClass: 2
Flags: HW
LayerCount: 2
Fore
SplineSet
209 715 m 256
 209 638 275 572 352 572 c 256
 429 572 494 638 494 715 c 256
 494 792 429 858 352 858 c 256
 275 858 209 792 209 715 c 256
681 -116 m 257
 518 -224 l 257
 393 -29 294 207 262 471 c 257
 162 507 90 603 90 715 c 256
 90 827 162 924 262 960 c 257
 294 1224 393 1459 518 1654 c 257
 681 1546 l 257
 571 1376 500 1172 472 946 c 257
 556 904 614 815 614 715 c 256
 614 615 556 527 472 485 c 257
 500 259 571 54 681 -116 c 257
EndSplineSet
EndChar

StartChar: uniFD3F
Encoding: 64831 64831 429
GlifName: uniF_D_3F_
Width: 770
VWidth: 0
GlyphClass: 2
Flags: HW
LayerCount: 2
Fore
SplineSet
562 715 m 256
 562 792 495 858 418 858 c 256
 341 858 276 792 276 715 c 256
 276 638 341 572 418 572 c 256
 495 572 562 638 562 715 c 256
90 1546 m 257
 253 1654 l 257
 378 1459 477 1224 509 960 c 257
 609 924 681 827 681 715 c 256
 681 603 609 507 509 471 c 257
 477 207 378 -29 253 -224 c 257
 90 -116 l 257
 200 54 271 259 299 485 c 257
 215 527 156 615 156 715 c 256
 156 815 215 904 299 946 c 257
 271 1172 200 1376 90 1546 c 257
EndSplineSet
EndChar

StartChar: v
Encoding: 118 118 527
GlifName: v
Width: 1015
VWidth: 0
GlyphClass: 2
Flags: HW
LayerCount: 2
Fore
SplineSet
776 964 m 257
 1000 964 l 257
 617 0 l 257
 400 0 l 257
 16 964 l 257
 240 964 l 257
 508 246 l 257
 776 964 l 257
EndSplineSet
EndChar

StartChar: w
Encoding: 119 119 528
GlifName: w
Width: 1482
VWidth: 0
GlyphClass: 2
Flags: HW
LayerCount: 2
Fore
SplineSet
1212 964 m 257
 1430 964 l 257
 1142 0 l 257
 930 0 l 257
 742 689 l 257
 554 0 l 257
 344 0 l 257
 53 964 l 257
 271 964 l 257
 458 258 l 257
 648 964 l 257
 835 964 l 257
 1026 258 l 257
 1212 964 l 257
EndSplineSet
EndChar

StartChar: x
Encoding: 120 120 529
GlifName: x
Width: 1043
VWidth: 0
GlyphClass: 2
Flags: HW
LayerCount: 2
Fore
SplineSet
752 964 m 257
 1012 964 l 257
 636 474 l 257
 1012 0 l 257
 751 0 l 257
 522 326 l 257
 293 0 l 257
 32 0 l 257
 407 474 l 257
 32 964 l 257
 292 964 l 257
 522 622 l 257
 752 964 l 257
EndSplineSet
EndChar

StartChar: y
Encoding: 121 121 530
GlifName: y
Width: 1034
VWidth: 0
GlyphClass: 2
Flags: HW
LayerCount: 2
Fore
SplineSet
796 964 m 257
 1019 964 l 257
 648 62 l 258
 554 -161 433 -420 115 -420 c 258
 32 -420 l 257
 32 -231 l 257
 115 -231 l 258
 264 -231 340 -151 421 41 c 257
 400 41 l 257
 16 964 l 257
 240 964 l 257
 520 268 l 257
 796 964 l 257
EndSplineSet
EndChar

StartChar: z
Encoding: 122 122 534
GlifName: z
Width: 929
VWidth: 0
GlyphClass: 2
Flags: HW
LayerCount: 2
Fore
SplineSet
84 786 m 257
 84 964 l 257
 867 964 l 257
 867 798 l 257
 318 178 l 257
 867 178 l 257
 867 0 l 257
 84 0 l 257
 84 166 l 257
 632 786 l 257
 84 786 l 257
EndSplineSet
EndChar

